<?xml version="1.0" encoding="UTF-8"?>
<svg id="ABC-Logo" xmlns="http://www.w3.org/2000/svg" width="474" height="330" viewBox="0 0 474 330">
  <defs>
    <style>
      .cls-1 {
        fill: #b89968;
      }

      .cls-2 {
        fill: #1a3a6b;
      }

      .cls-3 {
        isolation: isolate;
      }
    </style>
  </defs>
  <g>
    <path class="cls-1" d="M61.83,88.65c-30.8,17.76-49.68,50.56-50.03,86.19l-4.46,3.93c-.32-6.76-.06-13.1.76-19.61,2.65-21.04,11.85-40.65,26.38-56.08,9.36-9.94,20.56-18.04,33.16-23.4,19.52-8.3,41.31-9.89,61.8-4.68.39.1.82.33.95.55.16.25.19.95.08,1.28-.44,1.36-1.93,2.04-3.36,1.78-4.46-.81-8.71-1.53-13.32-1.88-18.15-1.36-36.19,2.84-51.96,11.93Z"/>
    <path class="cls-1" d="M193.31,126.2c2.32,4.59,4.04,8.98,5.74,13.67.15.41-.1,1.25-.34,1.53-.29.33-1.17.58-1.64.47-1.52-.38-2.4-1.46-2.94-2.86-7.96-20.84-22.55-38.31-41.55-49.94-2.18-1.33-2.45-3.93-1.28-4.87.24-.19,1.08-.27,1.35-.11l6.15,3.61c5.31,3.5,10.26,7.23,14.85,11.7,8,7.78,14.57,16.74,19.65,26.81Z"/>
    <path class="cls-1" d="M58.97,261.03c-8.81-3.74-16.86-9.92-23.59-16.59l3.74-2.36c5.06,5.12,10.79,9.37,16.99,13.13l2.86,5.81Z"/>
    <path class="cls-1" d="M202.05,188.14c-.81.22-1.7.81-1.88,1.66-1.21,5.63-2.57,11.03-4.64,16.4-2.63,6.82-6.09,13.06-10.58,18.82-3.21,4.12-7.04,7.49-11.48,10.18-12.62,7.67-27.86,4.85-35.6-7.89-7.22-12.2-6.18-27.85-1.85-40.99,9.95,7.91,24.45,9.34,34.34,1.36.57-.54,1.07-1.21,1.25-1.93.06-.26-.23-1.04-.47-1.01l-.89.14c-2.61,1.93-5.41,3.25-8.58,4.08-8.95,1.96-17.16-.91-24.2-6.56,5.81-13.28,14.71-25.59,27.55-32.59,7.89-4.3,17.6-6.25,25.95-2.53,8.59,3.83,12.06,12.75,10.36,21.81-1.36,7.3-6.47,13.32-14.11,13.68-3.54.16-6.63-1.17-9.09-3.67-.5-.51-1.64.19-1.89.66-.35.66-.24,1.45.29,2.08,1.95,2.3,4.52,3.72,7.58,4.15,7.34,1.04,14.57-2.07,18.95-8.06,6.49-8.9,5.93-22.35-2.22-29.91-9.51-8.82-25.43-8.09-37.04-3.13-8.28,3.54-15.67,8.73-21.82,15.27-4.34,4.62-7.73,9.67-10.97,15.32-1.39-2.33-2.38-4.72-3.22-7.28-3.57-11.31-2.13-23.34.47-34.76,8.58,2.59,18,3.01,26-.54,2.94-1.37,5.53-3.2,7.46-5.79,1.9-2.55,2.6-5.65,1.28-5.53-.25.02-.7.36-.84.62-1.55,3.04-4.06,5.11-7.05,6.7-7.87,4.06-17.39,3.03-25.69.33,2.87-9.85,6.33-19.1,10.24-28.37,2.37-5.62,4.88-10.91,7.54-16.36,1.67-3.43,3.32-7.41,3.07-11.06-.11-1.55-1.34-2.61-2.9-2.59-3.54.05-8.44,3.26-11.54,5.62-6.09,4.64-11.45,9.93-16.67,15.59-7.15,7.77-13.84,15.76-20.39,24.17-10.24-3.84-21.5-5.61-32.03-2.54-8.98,2.71-17.23,9.81-16.39,19.64.54,6.31,6.39,10.69,12.44,8.98.8-.23,1.14-1.19.99-1.71-.24-.83-.86-1.01-1.74-.83-3,.63-6.39-.65-7.68-3.55-1.39-3.12-.71-6.64,1.14-9.45,2.24-3.4,5.47-5.76,9.23-7.38,9.9-4.25,20.91-2.64,30.9,1.03l-9.21,12.06c-3.67,4.8-7.38,9.29-11.44,13.75-2.95,2.95-5.96,5.59-9.49,7.75-2.52,1.41-5,2.4-7.86,2.73-.23.18-.72.62-.61.84l.44.87c-9.8,2.24-19.27,5.1-28.52,9.02-10.59,4.48-21.55,11.21-26.65,21.75-3.47,7.13-3.03,15.41,1.53,21.89,3.26,4.63,8.19,7.36,13.76,8.31,3.28,6.86,7.3,13.09,12.07,18.93,1.33-.91,2.32-1.72,3.27-2.68-4.14-5.16-7.62-10.41-10.45-16.21,7.54-.44,14.69-4.91,16.51-12.32.04-.81-.37-1.63-.96-1.82-.88-.29-1.54.18-1.88.98-2.66,6.15-8.53,10.04-15.29,9.72-4.04-9.3-6.71-18.82-8.1-28.72-1.65,1.97-2.8,3.81-3.8,6.05,1.51,7.55,3.74,14.73,6.79,21.89-4.96-1.69-8.37-5.68-9.64-10.65-2.32-9.05,3.16-17.95,10.39-23.49,4.73-3.63,9.86-6.38,15.38-8.74,9.98-4.27,20.15-7.69,30.68-10.41,6.35-1.64,12.6-2.85,19.11-3.27-3.85,2.49-6.82,5.23-9.58,8.62-4.92,6.03-8.8,12.59-12.19,19.62-5.69,11.94-9.79,23.9-15.76,35.75-2.16,4.28-4.51,8.25-7.52,11.94-4.69,5.78-10.75,9.04-18.14,6.72-.36-.11-1.07.1-1.25.38-1.32,2.11,7.49,5.75,16.74,1.31,7-3.36,12.29-9.4,16.24-16.03,2.85-4.78,5.29-9.56,7.35-14.74l6.93-17.39,5.88-14.23c1.42-3.44,3.12-6.58,5.12-9.7,4.37-6.84,10.17-12.82,18.66-10.35,4.13,1.2,7.03,4.38,7.74,8.68.55,3.34-.08,6.67-1.85,9.64-3.8,6.36-10.03,10.75-17.2,12.63-3.1.81-6.06,1.22-9.21,1.62-.97.12-1.52,1.02-1.37,1.8.18,1,.96,1.34,2.1,1.2,4.74-.58,9.3-.28,13.65,1.28,9.36,3.34,13.9,10.42,15.03,20.31-9.49-1.02-18.82.2-27.38,4.15-6.61,3.05-12.51,7.74-15.97,14.07-5.22,9.54-3.36,21.02,4.58,28.41,3.46,3.22,7.44,5.55,11.92,7.27,13.73,5.29,30.75,6.09,45.21,3.5,19.67-3.51,37.81-12.9,52.09-26.8,3.95-3.84,7.53-7.8,10.83-12.19,10.38-13.85,17-29.99,19.01-47.2.07-.56-.82-.88-1.27-.75ZM134.61,82.27c3.27-2.98,6.65-5.54,10.51-7.63.6-.32,1.34-.44,1.97-.12-.43,1.91-1.25,3.52-2.2,5.19l-7.38,12.95c-2.56,4.5-4.8,8.91-6.98,13.61-3.09,6.66-5.63,13.25-7.76,20.57l-18.72-8.6c9.18-12.89,18.83-25.31,30.55-35.97ZM89.59,193.59c9.65-3.12,18.15-9.81,18.81-20.46.28-9.66-6.66-15.26-15.73-16.87-7.88-1.4-15.28-.76-23.45.04,3.6-2.06,6.87-4.11,9.89-6.84,8.59-7.77,15.19-17.29,21.92-26.91l10.27,4.67,10.3,4.13c-4.49,17.38-3.91,33.86,7.31,48.45-3.67,8.07-5.85,16.68-6.01,25.63-.04,6.93,1.62,13.49,4.41,19.75-5.4-2.85-10.54-4.96-16.19-6.21-.38-4.03-1.24-7.64-3.03-11.27-3.79-7.31-10.36-12.23-18.49-14.1ZM65.77,235.64c2.91-3.92,6.61-6.88,10.95-9.2,8.08-4.33,17.21-6.06,26.41-5.27-.23,14.26-7.62,28.18-20.17,34.99-5.67,2.96-11.89,4.11-18.35,2.72-5.76-6.84-3.98-16.39,1.16-23.24ZM173.08,242.39c-17.56,17.54-41.31,28.61-66.33,29.34-11.91.35-27.26-1.95-37.31-8.66,7.22.47,13.81-1.12,19.98-4.46,4.36-2.36,8.12-5.41,11.45-9.08,6.66-7.51,10.38-16.95,10.36-27.06,6.84,1.76,13.02,4.42,18.92,7.6,3.46,4.86,7.96,8.53,13.27,10.9,11.59,4.71,24.3,3.06,34.58-4.36-1.31,2.38-3.3,3.77-4.93,5.77Z"/>
  </g>
  <g class="cls-3">
    <path class="cls-1" d="M248.96,82.46c1.27.67,2.04,1.85,2.32,3.54h-1.73c-.21-.94-.63-1.63-1.28-2.06-.65-.43-1.47-.65-2.45-.65-1.17,0-2.16.45-2.96,1.34-.8.9-1.2,2.23-1.2,4.01,0,1.54.33,2.79.99,3.75.66.96,1.74,1.45,3.23,1.45,1.14,0,2.09-.34,2.84-1.02.75-.68,1.13-1.77,1.15-3.28h-4.04v-1.45h5.67v6.91h-1.12l-.42-1.66c-.58.65-1.1,1.1-1.55,1.35-.76.43-1.71.65-2.88.65-1.5,0-2.8-.5-3.88-1.49-1.18-1.24-1.77-2.95-1.77-5.12s.58-3.88,1.73-5.16c1.1-1.22,2.52-1.83,4.26-1.83,1.2,0,2.23.23,3.1.7Z"/>
    <path class="cls-1" d="M262.96,85.85c.62.31,1.1.72,1.42,1.22.31.47.52,1.03.63,1.66.09.43.14,1.12.14,2.07h-6.85c.03.96.25,1.73.67,2.3.42.58,1.07.87,1.95.87.82,0,1.47-.27,1.96-.82.27-.32.47-.69.58-1.1h1.55c-.04.35-.18.73-.41,1.16s-.49.77-.77,1.04c-.48.47-1.07.79-1.77.95-.38.09-.81.14-1.28.14-1.16,0-2.15-.43-2.96-1.28-.81-.85-1.21-2.05-1.21-3.58s.41-2.74,1.22-3.68c.81-.94,1.88-1.42,3.2-1.42.66,0,1.31.16,1.93.47ZM263.53,89.54c-.06-.69-.21-1.23-.44-1.64-.43-.76-1.15-1.14-2.15-1.14-.72,0-1.33.26-1.81.79-.49.52-.75,1.19-.78,2h5.19Z"/>
    <path class="cls-1" d="M270.19,85.59h1.5v1.63c.12-.32.42-.7.9-1.16.48-.45,1.04-.68,1.66-.68.03,0,.08,0,.15,0s.19.02.36.04v1.67c-.09-.02-.18-.03-.26-.04s-.17,0-.26,0c-.8,0-1.41.26-1.84.77-.43.51-.64,1.1-.64,1.77v5.41h-1.58v-9.41Z"/>
    <path class="cls-1" d="M279.17,82.09h1.58v12.91h-1.58v-12.91Z"/>
    <path class="cls-1" d="M286.12,82.09h1.61v1.79h-1.61v-1.79ZM286.12,85.63h1.61v9.37h-1.61v-9.37Z"/>
    <path class="cls-1" d="M293.1,85.59h1.5v1.34c.45-.55.92-.95,1.41-1.19s1.05-.36,1.66-.36c1.34,0,2.24.47,2.71,1.4.26.51.39,1.24.39,2.19v6.04h-1.61v-5.93c0-.57-.08-1.04-.25-1.39-.28-.59-.79-.88-1.53-.88-.38,0-.68.04-.92.11-.43.13-.81.39-1.14.77-.26.31-.43.63-.51.96s-.12.8-.12,1.42v4.93h-1.58v-9.41Z"/>
    <path class="cls-1" d="M311.28,85.88c.28.18.6.48.95.92v-4.75h1.52v12.96h-1.42v-1.31c-.37.58-.8,1-1.3,1.26s-1.08.39-1.72.39c-1.04,0-1.95-.44-2.71-1.32s-1.15-2.06-1.15-3.52c0-1.37.35-2.56,1.05-3.56.7-1,1.69-1.51,2.99-1.51.72,0,1.32.15,1.8.46ZM307.74,92.93c.43.68,1.11,1.02,2.05,1.02.73,0,1.33-.31,1.8-.94.47-.63.71-1.53.71-2.71s-.24-2.07-.73-2.64c-.48-.57-1.08-.86-1.79-.86-.79,0-1.44.3-1.93.91s-.74,1.51-.74,2.69c0,1.01.21,1.85.64,2.53Z"/>
    <path class="cls-1" d="M324.92,85.85c.62.31,1.1.72,1.42,1.22.31.47.52,1.03.63,1.66.09.43.14,1.12.14,2.07h-6.85c.03.96.25,1.73.67,2.3.42.58,1.07.87,1.94.87.82,0,1.47-.27,1.96-.82.27-.32.47-.69.58-1.1h1.56c-.04.35-.18.73-.41,1.16-.23.42-.49.77-.78,1.04-.48.47-1.07.79-1.77.95-.38.09-.81.14-1.28.14-1.16,0-2.15-.43-2.96-1.28-.81-.85-1.21-2.05-1.21-3.58s.41-2.74,1.22-3.68c.81-.94,1.88-1.42,3.2-1.42.66,0,1.31.16,1.93.47ZM325.48,89.54c-.06-.69-.21-1.23-.44-1.64-.43-.76-1.15-1.14-2.15-1.14-.72,0-1.32.26-1.81.79s-.75,1.19-.78,2h5.19Z"/>
    <path class="cls-1" d="M340.47,82.09h5.78c1.14,0,2.06.32,2.77.97.7.65,1.05,1.56,1.05,2.73,0,1.01-.31,1.88-.94,2.63-.63.75-1.59,1.12-2.88,1.12h-4.03v5.46h-1.75v-12.91ZM347.25,83.86c-.38-.18-.91-.27-1.58-.27h-3.46v4.47h3.46c.78,0,1.41-.17,1.9-.5.48-.33.73-.92.73-1.77,0-.95-.35-1.59-1.05-1.93Z"/>
    <path class="cls-1" d="M355.13,85.59h1.5v1.63c.12-.32.42-.7.91-1.16.48-.45,1.03-.68,1.66-.68.03,0,.08,0,.15,0s.19.02.36.04v1.67c-.09-.02-.18-.03-.26-.04-.08,0-.17,0-.26,0-.8,0-1.41.26-1.84.77-.43.51-.64,1.1-.64,1.77v5.41h-1.58v-9.41Z"/>
    <path class="cls-1" d="M369.11,89.3c.36-.05.61-.2.73-.46.07-.14.11-.34.11-.61,0-.54-.19-.93-.57-1.18s-.93-.37-1.64-.37c-.82,0-1.41.22-1.75.67-.19.25-.32.62-.38,1.1h-1.48c.03-1.16.41-1.97,1.13-2.43.72-.46,1.56-.68,2.52-.68,1.11,0,2,.21,2.7.63.68.42,1.03,1.08,1.03,1.97v5.42c0,.16.03.3.1.4.07.1.21.15.43.15.07,0,.15,0,.24-.01.09,0,.18-.02.28-.04v1.17c-.25.07-.43.11-.56.13s-.3.03-.53.03c-.54,0-.94-.19-1.19-.58-.13-.21-.22-.5-.27-.87-.32.42-.79.79-1.39,1.1s-1.27.47-2,.47c-.87,0-1.59-.26-2.14-.79-.55-.53-.83-1.19-.83-1.99,0-.87.27-1.55.82-2.03.54-.48,1.26-.78,2.14-.89l2.52-.32ZM365.78,93.58c.33.26.73.39,1.19.39.56,0,1.1-.13,1.62-.39.88-.43,1.32-1.13,1.32-2.1v-1.27c-.19.12-.44.23-.75.31-.3.08-.6.14-.89.18l-.96.12c-.57.08-1,.2-1.29.36-.49.27-.73.71-.73,1.32,0,.46.17.82.5,1.08Z"/>
    <path class="cls-1" d="M377.06,85.59h1.56v1.34c.38-.46.71-.8,1.02-1.01.52-.36,1.11-.54,1.78-.54.75,0,1.35.18,1.81.55.26.21.49.52.7.93.35-.5.76-.88,1.24-1.12.47-.24,1.01-.36,1.6-.36,1.27,0,2.13.46,2.58,1.37.25.49.37,1.15.37,1.99v6.27h-1.64v-6.54c0-.63-.16-1.06-.47-1.29s-.7-.35-1.15-.35c-.62,0-1.16.21-1.6.62s-.67,1.11-.67,2.08v5.48h-1.61v-6.14c0-.64-.08-1.1-.23-1.4-.24-.44-.69-.66-1.35-.66-.6,0-1.14.23-1.63.69s-.73,1.3-.73,2.51v4.99h-1.58v-9.41Z"/>
    <path class="cls-1" d="M400.86,85.85c.62.31,1.1.72,1.42,1.22.31.47.52,1.03.63,1.66.09.43.14,1.12.14,2.07h-6.85c.03.96.25,1.73.67,2.3.42.58,1.07.87,1.95.87.82,0,1.47-.27,1.96-.82.27-.32.47-.69.58-1.1h1.56c-.04.35-.18.73-.41,1.16-.23.42-.49.77-.77,1.04-.48.47-1.07.79-1.77.95-.38.09-.8.14-1.28.14-1.17,0-2.15-.43-2.96-1.28-.81-.85-1.21-2.05-1.21-3.58s.41-2.74,1.22-3.68c.82-.94,1.88-1.42,3.2-1.42.66,0,1.31.16,1.93.47ZM401.43,89.54c-.06-.69-.21-1.23-.44-1.64-.43-.76-1.15-1.14-2.15-1.14-.72,0-1.33.26-1.81.79-.49.52-.75,1.19-.78,2h5.19Z"/>
    <path class="cls-1" d="M408.09,85.59h1.5v1.63c.12-.32.42-.7.91-1.16.48-.45,1.03-.68,1.66-.68.03,0,.08,0,.15,0s.19.02.36.04v1.67c-.09-.02-.18-.03-.26-.04-.08,0-.17,0-.26,0-.8,0-1.41.26-1.84.77-.43.51-.64,1.1-.64,1.77v5.41h-1.58v-9.41Z"/>
    <path class="cls-1" d="M418.84,82.09l-.29,5.17h-1.02l-.29-5.17h1.6Z"/>
    <path class="cls-1" d="M424.39,92.05c.05.53.18.93.4,1.21.41.51,1.11.76,2.12.76.6,0,1.12-.13,1.58-.38.45-.26.68-.65.68-1.18,0-.4-.18-.71-.54-.92-.23-.13-.69-.28-1.38-.45l-1.28-.32c-.82-.2-1.42-.42-1.8-.67-.69-.43-1.04-1.02-1.04-1.78,0-.89.33-1.61.98-2.16.65-.55,1.52-.83,2.62-.83,1.44,0,2.47.42,3.11,1.25.4.53.59,1.1.58,1.71h-1.49c-.03-.36-.16-.68-.39-.97-.37-.41-1.02-.62-1.94-.62-.61,0-1.07.11-1.39.34s-.47.53-.47.9c0,.41.21.74.62.98.24.15.59.27,1.06.39l1.07.25c1.16.28,1.93.54,2.33.8.62.4.92,1.04.92,1.91s-.32,1.56-.97,2.17-1.62.91-2.94.91c-1.42,0-2.42-.32-3.01-.95-.59-.63-.91-1.42-.95-2.36h1.52Z"/>
  </g>
  <g class="cls-3">
    <path class="cls-2" d="M257.91,144.38h-10.08l-1.89,5.62h-5.97l9.76-27.35h6.46l9.69,27.35h-6.2l-1.76-5.62ZM256.31,139.67l-3.41-10.76-3.53,10.76h6.94Z"/>
    <path class="cls-2" d="M293.43,150h-5.71l-11.17-19.43v19.43h-5.32v-27.35h5.99l10.89,19.09v-19.09h5.32v27.35Z"/>
    <path class="cls-2" d="M316.74,144.38h-10.08l-1.89,5.62h-5.97l9.76-27.35h6.46l9.69,27.35h-6.2l-1.76-5.62ZM315.15,139.67l-3.41-10.76-3.53,10.76h6.94Z"/>
    <path class="cls-2" d="M346.46,150v-12.21h-10.69v12.21h-5.66v-27.35h5.66v10.43h10.69v-10.43h5.68v27.35h-5.68Z"/>
    <path class="cls-2" d="M375.58,144.38h-10.07l-1.89,5.62h-5.97l9.76-27.35h6.46l9.69,27.35h-6.2l-1.76-5.62ZM373.98,139.67l-3.41-10.76-3.53,10.76h6.94Z"/>
    <path class="cls-2" d="M406.06,122.65v4.84h-8.18v22.51h-5.75v-22.51h-8.22v-4.84h22.15Z"/>
    <path class="cls-2" d="M424.58,144.38h-10.08l-1.89,5.62h-5.97l9.76-27.35h6.46l9.69,27.35h-6.2l-1.76-5.62ZM422.99,139.67l-3.41-10.76-3.53,10.76h6.94Z"/>
  </g>
  <g class="cls-3">
    <path class="cls-2" d="M254.38,205h-12.39v-27.35h13.29c3.35.05,5.73,1.02,7.12,2.91.84,1.16,1.26,2.55,1.26,4.17s-.42,3.01-1.26,4.03c-.47.57-1.16,1.09-2.08,1.56,1.4.51,2.45,1.31,3.16,2.41.71,1.1,1.07,2.44,1.07,4.01s-.41,3.07-1.22,4.36c-.52.85-1.17,1.57-1.95,2.15-.88.67-1.91,1.13-3.11,1.37-1.19.25-2.49.37-3.89.37ZM257.09,187.74c.74-.45,1.11-1.24,1.11-2.39,0-1.27-.5-2.12-1.48-2.52-.85-.28-1.94-.43-3.27-.43h-6.01v6.03h6.72c1.2,0,2.18-.23,2.93-.69ZM254.25,192.96h-6.81v7.29h6.72c1.2,0,2.13-.16,2.8-.48,1.21-.59,1.82-1.73,1.82-3.41,0-1.42-.59-2.4-1.76-2.93-.66-.3-1.58-.45-2.76-.46Z"/>
    <path class="cls-2" d="M287.49,194.46v-16.81h5.81v16.81c0,2.91-.45,5.17-1.36,6.79-1.68,2.97-4.89,4.45-9.63,4.45s-7.96-1.48-9.65-4.45c-.9-1.62-1.36-3.88-1.36-6.79v-16.81h5.81v16.81c0,1.88.22,3.25.67,4.12.69,1.53,2.2,2.3,4.53,2.3s3.82-.77,4.51-2.3c.45-.87.67-2.24.67-4.12Z"/>
    <path class="cls-2" d="M310.66,201.05c1.35,0,2.44-.15,3.28-.45,1.6-.57,2.39-1.63,2.39-3.17,0-.9-.4-1.6-1.19-2.1-.79-.48-2.04-.91-3.73-1.28l-2.89-.65c-2.84-.64-4.81-1.34-5.9-2.1-1.84-1.26-2.76-3.23-2.76-5.92,0-2.45.89-4.48,2.67-6.1,1.78-1.62,4.4-2.43,7.85-2.43,2.88,0,5.34.76,7.38,2.29,2.03,1.53,3.1,3.75,3.2,6.65h-5.49c-.1-1.64-.82-2.81-2.15-3.51-.89-.46-2-.69-3.32-.69-1.47,0-2.65.3-3.53.89-.88.59-1.32,1.42-1.32,2.49,0,.98.43,1.71,1.3,2.19.56.32,1.74.7,3.56,1.13l4.71,1.13c2.07.5,3.62,1.16,4.68,1.99,1.63,1.29,2.45,3.15,2.45,5.58s-.96,4.57-2.87,6.23c-1.91,1.65-4.61,2.48-8.1,2.48s-6.36-.81-8.41-2.44c-2.04-1.63-3.06-3.86-3.06-6.71h5.46c.17,1.25.51,2.18,1.02,2.8.93,1.13,2.52,1.69,4.77,1.69Z"/>
    <path class="cls-2" d="M327.61,177.65h5.68v27.35h-5.68v-27.35Z"/>
    <path class="cls-2" d="M362.7,205h-5.71l-11.17-19.43v19.43h-5.32v-27.35h5.99l10.89,19.09v-19.09h5.32v27.35Z"/>
    <path class="cls-2" d="M389.04,193.05h-13.29v7.03h15.14v4.92h-20.73v-27.35h20.06v4.84h-14.47v5.81h13.29v4.75Z"/>
    <path class="cls-2" d="M407.25,201.05c1.35,0,2.44-.15,3.28-.45,1.6-.57,2.39-1.63,2.39-3.17,0-.9-.4-1.6-1.19-2.1-.79-.48-2.04-.91-3.73-1.28l-2.89-.65c-2.84-.64-4.81-1.34-5.9-2.1-1.84-1.26-2.76-3.23-2.76-5.92,0-2.45.89-4.48,2.67-6.1,1.78-1.62,4.4-2.43,7.85-2.43,2.88,0,5.34.76,7.38,2.29,2.03,1.53,3.1,3.75,3.2,6.65h-5.49c-.1-1.64-.82-2.81-2.15-3.51-.89-.46-2-.69-3.32-.69-1.47,0-2.65.3-3.53.89-.88.59-1.32,1.42-1.32,2.49,0,.98.43,1.71,1.3,2.19.56.32,1.74.7,3.56,1.13l4.71,1.13c2.07.5,3.62,1.16,4.68,1.99,1.63,1.29,2.45,3.15,2.45,5.58s-.96,4.57-2.87,6.23c-1.91,1.65-4.61,2.48-8.1,2.48s-6.37-.81-8.41-2.44c-2.04-1.63-3.06-3.86-3.06-6.71h5.46c.17,1.25.51,2.18,1.02,2.8.93,1.13,2.52,1.69,4.77,1.69Z"/>
    <path class="cls-2" d="M434.58,201.05c1.35,0,2.44-.15,3.28-.45,1.6-.57,2.39-1.63,2.39-3.17,0-.9-.4-1.6-1.19-2.1-.79-.48-2.04-.91-3.73-1.28l-2.89-.65c-2.85-.64-4.81-1.34-5.9-2.1-1.84-1.26-2.76-3.23-2.76-5.92,0-2.45.89-4.48,2.67-6.1,1.78-1.62,4.4-2.43,7.85-2.43,2.88,0,5.34.76,7.38,2.29,2.04,1.53,3.1,3.75,3.2,6.65h-5.49c-.1-1.64-.82-2.81-2.15-3.51-.89-.46-2-.69-3.32-.69-1.47,0-2.65.3-3.53.89s-1.32,1.42-1.32,2.49c0,.98.43,1.71,1.3,2.19.56.32,1.74.7,3.56,1.13l4.71,1.13c2.07.5,3.62,1.16,4.68,1.99,1.63,1.29,2.45,3.15,2.45,5.58s-.96,4.57-2.87,6.23c-1.91,1.65-4.61,2.48-8.1,2.48s-6.36-.81-8.41-2.44c-2.04-1.63-3.06-3.86-3.06-6.71h5.46c.17,1.25.51,2.18,1.02,2.8.93,1.13,2.52,1.69,4.77,1.69Z"/>
  </g>
  <g class="cls-3">
    <path class="cls-2" d="M261.19,257.96c-2.04,1.87-4.65,2.8-7.83,2.8-3.93,0-7.03-1.26-9.28-3.79-2.25-2.54-3.38-6.01-3.38-10.43,0-4.77,1.28-8.45,3.84-11.04,2.23-2.25,5.06-3.38,8.5-3.38,4.6,0,7.97,1.51,10.09,4.53,1.17,1.7,1.81,3.4,1.89,5.1h-5.71c-.37-1.31-.85-2.3-1.43-2.97-1.04-1.19-2.58-1.78-4.62-1.78s-3.72.84-4.92,2.51c-1.2,1.68-1.8,4.05-1.8,7.12s.63,5.37,1.9,6.89c1.27,1.53,2.88,2.29,4.83,2.29s3.53-.66,4.58-1.97c.58-.71,1.06-1.76,1.45-3.17h5.66c-.5,2.98-1.76,5.41-3.79,7.27Z"/>
    <path class="cls-2" d="M270.87,232.65h5.68v27.35h-5.68v-27.35Z"/>
    <path class="cls-2" d="M295.46,249.28h-5.9v10.72h-5.58v-27.35h13.42c1.92.04,3.39.27,4.42.71,1.03.43,1.91,1.07,2.63,1.91.59.69,1.06,1.46,1.41,2.3.35.84.52,1.8.52,2.88,0,1.3-.33,2.58-.98,3.83-.66,1.25-1.74,2.14-3.25,2.66,1.26.51,2.16,1.23,2.68,2.16.53.93.79,2.36.79,4.28v1.84c0,1.25.05,2.1.15,2.54.15.71.49,1.22,1.04,1.56v.69h-6.29c-.17-.61-.3-1.09-.37-1.47-.15-.77-.23-1.55-.24-2.36l-.04-2.54c-.03-1.74-.34-2.91-.96-3.49-.61-.58-1.76-.87-3.44-.87ZM298.93,244.3c1.14-.52,1.71-1.55,1.71-3.08,0-1.66-.55-2.77-1.65-3.34-.62-.32-1.55-.48-2.78-.48h-6.64v7.35h6.48c1.29,0,2.25-.15,2.89-.45Z"/>
    <path class="cls-2" d="M332.56,257.96c-2.04,1.87-4.65,2.8-7.83,2.8-3.93,0-7.03-1.26-9.28-3.79-2.25-2.54-3.38-6.01-3.38-10.43,0-4.77,1.28-8.45,3.84-11.04,2.23-2.25,5.06-3.38,8.5-3.38,4.6,0,7.97,1.51,10.09,4.53,1.18,1.7,1.81,3.4,1.89,5.1h-5.71c-.37-1.31-.85-2.3-1.43-2.97-1.04-1.19-2.58-1.78-4.62-1.78s-3.72.84-4.92,2.51c-1.2,1.68-1.8,4.05-1.8,7.12s.63,5.37,1.9,6.89c1.27,1.53,2.88,2.29,4.83,2.29s3.53-.66,4.58-1.97c.58-.71,1.06-1.76,1.45-3.17h5.66c-.5,2.98-1.76,5.41-3.79,7.27Z"/>
    <path class="cls-2" d="M342.68,232.65h5.71v22.43h13.54v4.92h-19.26v-27.35Z"/>
    <path class="cls-2" d="M386.91,248.05h-13.29v7.03h15.14v4.92h-20.73v-27.35h20.06v4.84h-14.47v5.81h13.29v4.75Z"/>
  </g>
</svg>