<?xml version="1.0" encoding="UTF-8"?>
<svg id="Ebene_1" data-name="Ebene 1" xmlns="http://www.w3.org/2000/svg" width="2380.67" height="595.56" viewBox="0 0 2380.67 595.56">
  <defs>
    <style>
      .cls-1 {
        fill: #fff;
      }
    </style>
  </defs>
  <path d="M2008.66,546.62l-17.02-13.44c-11.35-8.96-17.45-21.94-19.74-36.04-27.53,9.02-58.03,13.92-85.52,11.51-22.31-1.11-43.45-4.89-65.04-10.03l-4.56-4.3c2.2-4.38,4.58-8.06,7.65-11.82-23.4-4.99-45.57-11.25-67.11-21l-38.4-22.47-1.59-4c-.35-.87,1.24-2.99,2.05-3.52l18.05-11.93,27.73-15.38c14.28-6.55,28.36-12.35,43.26-16.15l-16.25-13.53-10.79-10.03-14.99-15.18c-17.97-19.85-33.28-41.32-45.81-65.05-1.26-2.39.18-6.27,2.82-6.81,33.76-6.89,67.67-6.97,102.71.32-7.76-22.15-14.81-44.47-16.89-68.2l-1.23-13.99-.97-10.25c-.22-2.3,1.42-8.14,4.2-7.56l17.27,3.58c20.7,4.29,39.84,11.65,58.66,21.27l-.16-6.98c-.12-5.42-.44-9.93-.07-15.3l.73-10.65c3.08-25.06,9.7-48.85,20.06-71.73.78-1.71,1.72-3.5,2.76-4.13,1.21-.74,4.72-.28,6.11.46,23.8,12.71,45.79,27.68,66,46.59l9.48-21.65c9.18-16.57,19.45-31.77,32.67-45.3l19.77-20.24c2.83-2.9,6.58-2.87,9.53.12l19.83,20.12c15.55,15.78,27.36,34.27,36.25,54.62l4.94,13.51,10.72-10.14c17.42-14.41,35.65-26.64,55.5-37.48,1.14-.62,4.04-1.13,5.17-.87s2.93,2,3.53,3.3c12.25,26.35,18.81,54.01,20.92,82.97l.09,20.81c0,.42.13,1.81.22,2.14l29.97-12.55c12.43-4.04,43.58-14.2,47.73-10.96.81.63,1.64,2.94,1.58,3.97l-1,18.22c-.9,16.33-3.82,31.94-8.63,47.66l-8.26,27.02c-.18.58-.92,1.78-1.18,2.03s1.27-.08,1.75-.14l39.53-5.19,24.52-.12,10.12.9,26.12,3.47c1.02.14,3.11,1.4,3.82,2.05.84.77,1.11,3.51.5,4.69-11.75,22.75-25.93,43.05-42.99,62.14l-25.85,26.05-14.14,11.86-3.14,2.52.36,1.33c30.88,9.48,59.12,23.74,85.2,42.74,2.12,1.54,5.11,6.22,2.35,8.15-12.11,8.43-24.21,16.31-37.66,22.3-21.83,9.72-43.57,16.7-67.18,21.17l5.32,8.7c.51.83,1.74,3.17,1.15,3.91l-2.63,3.3c-17.25,4.34-34.33,7.59-52.23,9.67l-15.06,1.12c-9.1.67-17.71.89-26.91-.17-19.33-.99-37.72-5.22-55.96-11.21-.25-.16-1.72-1.22-1.79-.89l-.51,2.63c-2.74,14.11-9.31,25.77-20.03,35.11l-26.83,20.14-25.49,18.53c-2.84,2.06-5.69,1.33-8.34-.53l-36.76-25.82ZM2057.12,155.14l10.12,10.39,10.4,11.62,4.92,5.89c7.28-12.04,15.02-22.68,24.46-32.87l-9.89-25.62c-7.77-16.16-17.79-30.77-30.31-43.59l-17.44-17.86c-17.32,16.09-31.97,33.38-44.18,53.23l-13.43,28.71c-1.54,3.3.3,5.87,2.53,8.31,8.31,9.09,14.82,18.34,21.52,29.55l7.97-8.98,24.58-25.03c3.35,1.41,6.05,3.49,8.74,6.25ZM1967.78,262.21c10.52-26.71,24.68-49.87,41.34-71.19-21.16-37.78-56.46-65.27-93.52-85.82-9.7,22.68-16.07,45.48-17.89,69.53l-.25,33.22c18.74,9.4,34.8,20.7,50.17,34.21l20.14,20.05ZM2130.35,262.95c19.32-23.33,43.12-39.88,69.48-54.17,1.72-9.54,1.78-18.93,1.03-28.78-1.97-25.99-7.29-51.1-18.12-74.82-19.7,10.36-36.61,22.67-53.06,36.67l-21.07,20.9c-7.28,9.12-13.92,18.2-19.24,28.31,17.3,22.14,30.72,45.4,40.97,71.89ZM2104.84,391.47c16.42-19.05,23.95-42.23,25.98-66.75,3.92-47.36-28.55-103.66-59.15-139.47l-5.79-6.34-16.18-17.29c-27.78,26.67-51.29,57.01-67.16,91.88-23.87,52.45-22.32,110.19,22.04,149.75,13.39,11.95,28.16,20.97,44.85,28.72,19.9-10.28,41.36-22.65,55.42-40.5ZM1957.82,334.17l-.1-31.38c-.03-10.41,3.62-20.38,6.27-30.02l-7.08-7.9-13.05-12.97c-36.99-31.79-77.38-51.47-126.16-63.04,3.59,61.45,28.2,125.64,69.68,171.49l16.66,16.59c32.79,28.31,74.76,47.07,118.42,52.73-35.5-22.75-60.06-52.37-64.65-95.51ZM2194.05,377.28l10.17-9.96c18.91-18.51,33.79-39.77,45.03-63.82,18.23-34.75,28.31-74.62,31.26-114.54-46.71,10.5-89.37,31.76-125.23,62.36l-15.83,15.35c-2.04,2.29-3.96,4.93-5.35,7.62,5.07,17.28,8.22,34.2,6.85,51.93-1.81,23.54-8.85,46.12-22.71,65.16-11.3,15.51-25.82,26.54-41.46,38.23,43.78-6.38,84.62-24.04,117.25-52.34ZM2003.63,437.17c-84.56-20.02-138.59-68.8-172.88-147.88l-34.34-5.74-10.2-.89-23.38.25-11.99,1.1-16.92,2.57,6.12,10.31c10.05,16.94,21.88,31.99,35.31,46.67,51.79,56.62,117.07,85.77,193.09,93.79l35.2-.18ZM2138.1,436.64c37.89-4.64,74.37-15.05,107.6-32.64,17.19-9.1,33.02-19.09,47.34-31.68l12.94-11.38c23.13-21.53,42.95-46.19,59.23-74.84-33.22-6.22-66.24-4.37-98.17,3.61-12,29.4-28.25,55.33-48.95,78.51-17.99,18.69-37.61,34.48-60.62,46.39-20.86,10.31-42.02,17.53-64.3,22.39l8.77,1.04c7.03.84,14.15.24,21.3-.3l14.86-1.1ZM2323.3,458.09c15.37-6.55,28.89-13.03,42.88-22.66-11.01-8.38-21.69-14.52-33.44-20.41-16.97-8.86-34.35-15.32-53.04-19.59-20.49,13.63-41.65,23.99-64.69,33.24,20.27,11.79,37.65,26.55,52.48,44.93,19.18-3.87,37.46-8.17,55.81-15.52ZM1841.09,461.22c12.38-12.74,26.28-23.04,41.97-32.63-22.37-9.24-43-19.33-62.61-32.18-32.04,6.64-61.48,19.28-87.79,38.77l15.83,10.3c25.62,13.48,52.79,22.86,81.63,27.42l10.96-11.68ZM2026.42,453.2l7.11-6.43c-4.6-.47-8.59-.33-13.34.67l-53.56-.45c-24.24-1.6-47.06-6.77-69.95-13.74-27.02,13.31-48.8,32.74-65.32,57.03,29.04,7.51,59.01,9.84,88.66,7.72,22.75-1.63,43.73-8.23,64.44-17.3,15.54-6.81,29.21-15.96,41.96-27.49ZM2071.66,452.67c11.39,10.33,23.3,17.99,36.65,24.9,25.29,13.09,51.97,19.84,80.39,21.5l21.18.02,13.99-1.1c15.16-1.2,29.32-3.92,43.57-7.62l-15.55-19.41-14.71-14.32c-10.31-10.04-22.35-17.68-35.41-23.23-23.19,7.3-45.84,12.77-69.66,13.7l-18.62.73-10.23-.02-22.92-.6-7.92-.71-8.35-.73,7.62,6.9ZM2049.87,563.48l36.21-26.23c16.89-12.24,26.06-20.08,30.63-41.78-.52-3.15-1.87-3.66-4.61-4.86-23.82-10.45-44.16-25.95-63.02-44.59-14.78,16.46-31.9,29.04-50.86,39.31l-16.6,7.8c1.14,14.66,8.59,27.2,20.28,35.77l33.48,24.53,14.51,10.05Z"/>
  <path d="M169.46,367.83l-9.2-10.02c.19-2.53,2.91-5.29,6.1-6.9l12.01,12.68,31.98,32.78,7.04,7.07,19.86,19.04,13.05,11.99,11.51,10.52,31.01,27.96,14.48,13.53,14.4,13.61,17.13,16.28,19.46-18.89,22.95-21.98,11.04-10.04,12-10.98,12.01-11,12.99-11.99,12.03-10.99,15.08-14.09,39.11-38.7-11.12-49.37-6.57-30.3c-8.27-10.8-16.96-21.25-28.06-28.74s-23.89-6.95-33.33,1.38l-11.12,9.8c-7.39,6.52-12.83,14.63-18.21,22.59l-10.71,44.56c-4.24,17.65-10.1,34.44-18.45,50.4-3.12,5.97-7.02,10.73-11.97,15.32-7.21,6.69-18.62,7.07-27.07,1.35s-14.49-14.29-19.33-23.55c-9.87-18.88-17.35-37.82-23.59-58.51-9.27-9.07-19.55-16.66-31.42-22.44-27.69-13.48-53.62,10.47-74.26,30.21l-21.01,20.1c-9.56,9.14-20.95,15.83-34.23,17.69-10.31,1.45-20.33-1.26-29.71-5.93-7.48-3.72-14.08-9-20.84-14l-21.83-16.18c-12.01-7.48-24.94-11.8-39.47-10.38-1.57-1.28-2.95-3.22-3.21-4.67-.25-1.37,1.14-4.96,2.59-5.17,12.17-1.78,24.52,1.49,35.54,6.77,27.19,13.02,43.55,37.19,69.27,39.51,11.32,1.02,22.55-4.64,30.62-11.73l7.02-6.17c-27.7-34.32-49.18-71.12-55.86-114.64l-1.29-12.12c-.73-6.84-.33-12.89.13-20.05,2.21-33.81,18.26-64.21,43.59-86.79,27.07-24.14,63.2-35.68,99.66-33.2,27.74,1.89,52.7,12.76,74.2,29.86l18.32,18.6c6.54,6.64,11.09,14.59,15.23,22.83,7.41-15.27,17.71-27.38,30.15-38.61,21.77-19.66,50.56-30.92,79.92-32.66,23.68-1.41,44.86,3.66,66.14,13.07,41.92,18.54,69.75,58.31,73.63,104.27,2.71,32.03-4.34,62.78-18.75,91.47-11,21.9-23.67,41.65-40.41,60.67,9.43,10.63,24.48,24.97,38.69,24.59l14.85-43.07,10.91-25.03c5.31-12.2,18.49-28.08,32.13-28.08,4.79,0,10.49.12,14.62,2.41,7.5,4.17,13.57,9.68,18.8,16.3,4.16,5.26,9.67,8.97,15.06,12.9,9.07,6.6,19.01,9,30.25,8.82,2.6.15,3.32,7.69,1.12,8.37l-22.57.71c-17.02.53-31.48,8.91-44.33,19.54l-25.72,21.28c-10.74,8.88-22.95,14.96-37.09,16.04l-9.79,26.12c-5.32,14.2-15.05,34.34-29.3,35.43-8.35.64-14.56-4.64-18.89-11.06-6.96-10.3-11.58-21.68-15.32-33.57l-4.93-15.65-15.07,15.37-4.96,5-15.88,15.12-15.02,13.98-13.99,13-12.01,11-11,10.03-12.03,11.01-15.96,14.99-17.12,16.03-24.2,23.67c-1.1.9-4.9-.43-6.01-1.51l-19.65-19.17-20-19-11.04-10.03-12.01-11-14-12.99-14.98-13.99-14.09-13.02-26.88-25.93-15.07-15.06-17.81-18.65ZM448.89,154.53c5.46,6.43,9.21,13.58,12.14,21.35,7.09,18.79,12.26,37.76,16.25,57.61l10.18,50.69,13.67,20.61,22.13,30.55c44.62-53.51,75.56-122.81,42.52-188.21-4.24-8.39-8.79-16.14-15.44-22.64l-9.1-8.89c-10.09-9.86-21.91-16.35-35.04-22.12-33.45-14.73-76.5-13.55-108.7,5.16-26.44,15.37-38.99,31-53.48,57.51-.76,1.39-2.99,3.52-4.33,3.44-1.15-.07-3.33-1.07-4.72-1.8-8.03-15.6-17.39-29.76-29.96-41.82-19-16.5-40.55-28.24-65.65-31.43-27.3-3.47-54.15.98-78.19,13.7-15.97,8.45-28.72,20.34-39.71,34.52-19,24.51-25.59,55.9-22.27,86.8,4.33,40.26,26.53,81.44,53.04,112.74,8.77-10.96,14.69-22.23,20.92-33.92l8.72-16.36c7.53-14.65,16.44-28.21,29.35-38.43,11.74-9.29,26.99-7.55,36.99,3.09,4.43,4.71,8.67,9.26,11.97,15.06,9.35,16.44,15.82,33.51,22.44,51.56,11.46,10.77,28.15,22.41,43.25,21.8,9.36-.37,16.56-5.07,23.5-10.62,9.38-7.49,15.93-17.3,22.91-27.03,2.76-3.84,4.9-7.39,6.01-12.06l13.05-54.89c5.62-23.66,14.44-60.79,29.11-76.61,8.08-8.72,20.6-8.59,28.45.65ZM461.83,255.96l11.83,10.53-11.25-52.11c-3.64-16.88-13.35-51.41-26.51-57.52-3.36-1.56-7.93,2.04-9.49,4.56l-6.17,10.04c-5.89,13.61-10.9,27.12-14.27,41.66l-12.91,55.7,14.72-13.96c14.85-14.09,37.78-13.39,54.05,1.09ZM254.27,294.02l13.36,8.48c-8.77-22.37-27.39-69.56-50.41-50.99-9.16,7.39-16.07,16.73-21.73,27.17l-15.68,28.95c9.59-6.89,17.6-13.31,27.87-17.73,15.39-6.61,32.13-5.06,46.59,4.12ZM638.95,328.09c10.24-7.3,21.3-13.04,33.63-15.14-15.25-8.85-23.11-22.71-36.12-30.64-15.88-7.93-30.44,12.52-37.16,28.26-8.01,18.77-13.95,37.9-19.73,57.02,15.79-4.05,27.6-12.81,39.28-22.62l20.1-16.87ZM514.11,346.59c.68-.96,1.82-3.04,1.92-3.97l-22.78-31.27,10.19,46.46,10.67-11.23ZM324.68,397.09c14.85,12.53,31.37-25.16,36.28-42.96l10.45-37.88-9.84,10.53c-9.17,10.26-21.16,17.03-35.25,17.83-13.23-.64-24.76-5.1-36.52-12.38,8.12,22.59,17.49,50.19,34.87,64.86ZM538.49,429.56c14.5-12.02,20.94-34.3,27.29-51.94-12.1-2.48-21.95-7.28-30.48-15.17l-12.38-11.44-16.67,19.2,7.36,24c2.98,9.72,6.99,19.03,12.28,27.53,2.86,4.59,6.68,7.83,12.6,7.8Z"/>
  <path d="M1402.63,396.73l8.85-5c4.25-2.4,5.74-6.88,3.91-11.32l-6.41-15.51c-2.47-5.97.11-12.98,5.11-16.63,12.18-8.89,26.91-8.71,32.46-16.81,2.15-3.15.16-9.75-2.12-13.04l-19.29-27.78c-10.63-15.32-26.1-36.47-27.67-54.17-.45-5.02-.44-10.94.25-15.64l1.97-13.33c2.7-18.27-7.8-59.21-15.14-79.3-8.01-21.94-19.77-41.18-35.81-58.34-34.17-36.55-85.89-56.09-135.71-59.9h-36.47c-32.63,2.72-64.14,11.42-92.67,26.91-58.1,31.54-96,89.3-102.05,155l-.9,12.59c-.42,5.89-.36,11.23-.03,17.14l.76,13.67c6.09,58.44,29.89,97.29,57.87,146.87,15.76,27.93,23.51,57.89,25.34,89.7l.15,25.53-.79,10.23c-2.27,29.36-8.92,58.07-16.55,86.09-.4,1.49-4.21,2.07-5.57,1.79s-4.36-2.44-3.99-3.93c6.63-26.86,13.44-52.58,15.32-80.05l1.24-18.09v-20.86c-1.42-19.43-4.38-38.18-11.05-56.34-5.46-14.89-12.61-27.98-20.32-41.73l-16.87-30.11-11.04-22.1c-14.22-28.48-22.34-59.08-24.67-91.01v-32.59c3.35-53.28,25.84-103.42,64.96-139.72,23.83-22.11,51.39-38.13,82.45-47.6,18.66-5.69,36.92-9.89,56.5-11.32l40.4-.04c76.09,6.43,146.61,44.84,176.2,117.57,9.97,24.49,21.54,67.26,18.34,91.91l-.93,7.17c-3.92,15.64-.65,30.36,8.14,43.3l22.28,32.76c5.93,8.72,12.08,17.01,16.32,26.54s1.25,20.17-8.52,25.06l-22.79,8.94c-1.92.75-6.03,4.23-5.62,6.27,2.72,13.8,17.85,28.63-2.58,41.45,7.79,7.8,7.69,18.17.11,25.36-11.99,11.36-7.41,14.18-5.9,27.38l1.35,11.81c.64,17.78-9.81,33.68-26.91,39.22-4.68,1.51-10.31,3.41-15.28,3.49l-42.43.72c-24.31.41-41.6,20.64-43.5,42.64l-2.41,27.86-.72,14.96-9.77-.2.2-22.65.81-11.19,1.98-13.82c1.08-7.58,4.11-14.35,7.97-21.2,8.59-15.27,24.58-24.61,42.48-26.36l43.94-.92c9.42-.2,18.56-3.37,25.09-9.87,9.52-9.46,9.26-26.05,5.66-38.99-6.88-24.71,16.03-28.06,12.59-37.61-.89-2.48-4.26-5.06-6.69-6.26-2.83-1.4-5.18-6.72-1.83-8.61Z"/>
  <path d="M1198.83,233.78c-40.73-1.08-76.48-17.49-105.53-44.25-2.57-2.37-6.77-5.17-7.01-8.89,1.6-4.35,5.74-7.18,9.12-10.09,17.83-15.36,37.14-27.95,59.64-35.28,15.62-5.09,30.68-8.13,47.49-6.67,38.89,3.38,74.82,21.81,101.51,50.09,1.82,1.93-1.3,6.8-3.42,7.15-16.2,15.99-34.57,28.41-55.7,37.25-14.59,6.11-29.63,8.46-46.1,10.69ZM1168.86,213.58c14.24,12.11,33.88,13.08,49.22,3.31,14.75-9.38,22.28-27.64,18.19-45.19-2.26-9.71-6.44-17.56-14.37-24.14-17.26-14.33-44.3-11.82-58.46,5.84s-12.97,44.54,5.42,60.17ZM1155.57,215.78c-16.87-23.71-16.55-48.28,1.84-70.54-22.17,7.89-41.68,19.71-58.77,36.24l22.7,16.92c10.36,7.72,21.54,13.2,34.23,17.39ZM1252.37,208.94c14.83-7.94,27.4-17.92,40.62-28.29l-7-6c-14.74-12.65-31.91-22.21-50.84-28.62,16.77,24.51,15.64,46.44.38,69.66l16.84-6.74Z"/>
  <path class="cls-1" d="M2104.84,391.47c-14.05,17.85-35.52,30.22-55.42,40.5-16.7-7.75-31.46-16.77-44.85-28.72-44.36-39.56-45.91-97.3-22.04-149.75,15.87-34.87,39.38-65.21,67.16-91.88l16.18,17.29,5.79,6.34c30.6,35.81,63.07,92.11,59.15,139.47-2.03,24.52-9.55,47.69-25.98,66.75Z"/>
  <path class="cls-1" d="M2194.05,377.28c-32.63,28.31-73.47,45.96-117.25,52.34,15.64-11.69,30.16-22.72,41.46-38.23,13.86-19.04,20.89-41.62,22.71-65.16,1.37-17.73-1.79-34.65-6.85-51.93,1.39-2.69,3.32-5.33,5.35-7.62l15.83-15.35c35.86-30.6,78.52-51.86,125.23-62.36-2.95,39.92-13.03,79.79-31.26,114.54-11.24,24.05-26.12,45.3-45.03,63.82l-10.17,9.96Z"/>
  <path class="cls-1" d="M1957.82,334.17c4.58,43.14,29.14,72.76,64.65,95.51-43.66-5.66-85.63-24.42-118.42-52.73l-16.66-16.59c-41.48-45.85-66.09-110.04-69.68-171.49,48.78,11.56,89.17,31.25,126.16,63.04l13.05,12.97,7.08,7.9c-2.64,9.64-6.3,19.61-6.27,30.02l.1,31.38Z"/>
  <path class="cls-1" d="M2138.1,436.64l-14.86,1.1c-7.15.53-14.26,1.13-21.3.3l-8.77-1.04c22.28-4.86,43.45-12.08,64.3-22.39,23.01-11.91,42.63-27.7,60.62-46.39,20.7-23.18,36.96-49.12,48.95-78.51,31.93-7.97,64.95-9.83,98.17-3.61-16.28,28.65-36.1,53.32-59.23,74.84l-12.94,11.38c-14.32,12.59-30.15,22.58-47.34,31.68-33.23,17.59-69.71,28-107.6,32.64Z"/>
  <path class="cls-1" d="M2003.63,437.17l-35.2.18c-76.02-8.02-141.3-37.17-193.09-93.79-13.43-14.68-25.26-29.73-35.31-46.67l-6.12-10.31,16.92-2.57,11.99-1.1,23.38-.25,10.2.89,34.34,5.74c34.29,79.08,88.32,127.86,172.88,147.88Z"/>
  <path class="cls-1" d="M2130.35,262.95c-10.25-26.49-23.67-49.74-40.97-71.89,5.32-10.11,11.96-19.19,19.24-28.31l21.07-20.9c16.45-14,33.36-26.31,53.06-36.67,10.83,23.72,16.15,48.84,18.12,74.82.75,9.85.69,19.23-1.03,28.78-26.37,14.29-50.17,30.83-69.48,54.17Z"/>
  <path class="cls-1" d="M1967.78,262.21l-20.14-20.05c-15.36-13.51-31.42-24.81-50.17-34.21l.25-33.22c1.82-24.06,8.19-46.85,17.89-69.53,37.06,20.55,72.35,48.04,93.52,85.82-16.67,21.32-30.82,44.48-41.34,71.19Z"/>
  <path class="cls-1" d="M2049.87,563.48l-14.51-10.05-33.48-24.53c-11.69-8.57-19.14-21.11-20.28-35.77l16.6-7.8c18.96-10.27,36.09-22.85,50.86-39.31,18.86,18.64,39.2,34.14,63.02,44.59,2.74,1.2,4.08,1.71,4.61,4.86-4.57,21.7-13.74,29.55-30.63,41.78l-36.21,26.23Z"/>
  <path class="cls-1" d="M2071.66,452.67l-7.62-6.9,8.35.73,7.92.71,22.92.6,10.23.02,18.62-.73c23.82-.93,46.47-6.41,69.66-13.7,13.07,5.55,25.1,13.19,35.41,23.23l14.71,14.32,15.55,19.41c-14.25,3.7-28.41,6.43-43.57,7.62l-13.99,1.1-21.18-.02c-28.42-1.66-55.1-8.41-80.39-21.5-13.35-6.91-25.25-14.57-36.65-24.9Z"/>
  <path class="cls-1" d="M2026.42,453.2c-12.75,11.54-26.42,20.68-41.96,27.49-20.71,9.07-41.69,15.67-64.44,17.3-29.65,2.12-59.61-.21-88.66-7.72,16.52-24.29,38.3-43.71,65.32-57.03,22.9,6.97,45.71,12.15,69.95,13.74l53.56.45c4.74-1,8.74-1.14,13.34-.67l-7.11,6.43Z"/>
  <path class="cls-1" d="M2057.12,155.14c-2.69-2.77-5.39-4.84-8.74-6.25l-24.58,25.03-7.97,8.98c-6.7-11.21-13.21-20.46-21.52-29.55-2.23-2.44-4.07-5.01-2.53-8.31l13.43-28.71c12.21-19.85,26.86-37.14,44.18-53.23l17.44,17.86c12.52,12.82,22.54,27.43,30.31,43.59l9.89,25.62c-9.45,10.19-17.19,20.83-24.46,32.87l-4.92-5.89-10.4-11.62-10.12-10.39Z"/>
  <path class="cls-1" d="M2323.3,458.09c-18.35,7.35-36.63,11.65-55.81,15.52-14.83-18.38-32.21-33.14-52.48-44.93,23.04-9.25,44.2-19.61,64.69-33.24,18.69,4.26,36.07,10.73,53.04,19.59,11.75,5.89,22.43,12.03,33.44,20.41-13.99,9.63-27.51,16.1-42.88,22.66Z"/>
  <path class="cls-1" d="M1841.09,461.22l-10.96,11.68c-28.84-4.55-56.01-13.93-81.63-27.42l-15.83-10.3c26.3-19.49,55.75-32.13,87.79-38.77,19.61,12.85,40.23,22.94,62.61,32.18-15.69,9.59-29.6,19.88-41.97,32.63Z"/>
  <path class="cls-1" d="M448.89,154.53c-7.85-9.24-20.37-9.37-28.45-.65-14.67,15.83-23.49,52.95-29.11,76.61l-13.05,54.89c-1.11,4.66-3.25,8.21-6.01,12.06-6.98,9.73-13.53,19.54-22.91,27.03-6.94,5.54-14.14,10.24-23.5,10.62-15.09.6-31.79-11.04-43.25-21.8-6.62-18.05-13.08-35.12-22.44-51.56-3.3-5.8-7.54-10.35-11.97-15.06-10-10.64-25.25-12.38-36.99-3.09-12.92,10.22-21.83,23.78-29.35,38.43l-8.72,16.36c-6.23,11.69-12.15,22.96-20.92,33.92-26.51-31.29-48.71-72.48-53.04-112.74-3.32-30.9,3.27-62.29,22.27-86.8,10.99-14.18,23.74-26.07,39.71-34.52,24.04-12.72,50.9-17.17,78.19-13.7,25.1,3.19,46.65,14.93,65.65,31.43,12.57,12.07,21.93,26.22,29.96,41.82,1.39.73,3.57,1.73,4.72,1.8,1.34.09,3.57-2.05,4.33-3.44,14.49-26.51,27.04-42.14,53.48-57.51,32.2-18.71,75.25-19.89,108.7-5.16,13.13,5.78,24.94,12.26,35.04,22.12l9.1,8.89c6.66,6.51,11.2,14.25,15.44,22.64,33.04,65.4,2.1,134.7-42.52,188.21l-22.13-30.55-13.67-20.61-10.18-50.69c-3.98-19.85-9.16-38.82-16.25-57.61-2.93-7.77-6.68-14.92-12.14-21.35Z"/>
  <path class="cls-1" d="M461.83,255.96c-16.27-14.48-39.2-15.18-54.05-1.09l-14.72,13.96,12.91-55.7c3.37-14.54,8.38-28.05,14.27-41.66l6.17-10.04c1.55-2.53,6.12-6.12,9.49-4.56,13.16,6.11,22.86,40.63,26.51,57.52l11.25,52.11-11.83-10.53Z"/>
  <path class="cls-1" d="M638.95,328.09l-20.1,16.87c-11.68,9.81-23.49,18.58-39.28,22.62,5.78-19.12,11.72-38.25,19.73-57.02,6.72-15.74,21.28-36.19,37.16-28.26,13.01,7.93,20.87,21.79,36.12,30.64-12.32,2.1-23.39,7.84-33.63,15.14Z"/>
  <path class="cls-1" d="M324.68,397.09c-17.38-14.67-26.75-42.26-34.87-64.86,11.76,7.29,23.28,11.74,36.52,12.38,14.09-.81,26.09-7.57,35.25-17.83l9.84-10.53-10.45,37.88c-4.91,17.8-21.43,55.49-36.28,42.96Z"/>
  <path class="cls-1" d="M538.49,429.56c-5.93.03-9.74-3.21-12.6-7.8-5.29-8.5-9.3-17.81-12.28-27.53l-7.36-24,16.67-19.2,12.38,11.44c8.54,7.88,18.39,12.69,30.48,15.17-6.35,17.63-12.79,39.92-27.29,51.94Z"/>
  <path class="cls-1" d="M254.27,294.02c-14.47-9.19-31.21-10.74-46.59-4.12-10.27,4.41-18.28,10.84-27.87,17.73l15.68-28.95c5.66-10.44,12.57-19.78,21.73-27.17,23.02-18.57,41.64,28.63,50.41,50.99l-13.36-8.48Z"/>
  <path class="cls-1" d="M514.11,346.59l-10.67,11.23-10.19-46.46,22.78,31.27c-.1.93-1.24,3-1.92,3.97Z"/>
  <path class="cls-1" d="M1168.86,213.58c-18.39-15.63-20.09-41.87-5.42-60.17s41.2-20.17,58.46-5.84c7.93,6.58,12.1,14.43,14.37,24.14,4.09,17.55-3.45,35.81-18.19,45.19-15.34,9.76-34.98,8.79-49.22-3.31ZM1216.92,173.49c-5.61,6-11.68,6.45-16.25,2.15s-4.27-10.31.32-16.3c-13.14-3.72-24.56,5.2-27.17,17.84-1.46,7.09,1.61,14.36,6.36,18.95,5.12,4.94,12.28,7.4,19.53,5.9,13.41-2.78,22.04-16.24,17.2-28.53Z"/>
  <path class="cls-1" d="M1252.37,208.94l-16.84,6.74c15.27-23.22,16.39-45.14-.38-69.66,18.93,6.41,36.1,15.97,50.84,28.62l7,6c-13.22,10.37-25.79,20.35-40.62,28.29Z"/>
  <path class="cls-1" d="M1155.57,215.78c-12.69-4.18-23.87-9.67-34.23-17.39l-22.7-16.92c17.09-16.53,36.59-28.35,58.77-36.24-18.38,22.26-18.7,46.83-1.84,70.54Z"/>
  <path d="M1216.92,173.49c4.84,12.29-3.79,25.75-17.2,28.53-7.25,1.5-14.4-.95-19.53-5.9-4.75-4.59-7.82-11.86-6.36-18.95,2.6-12.65,14.03-21.56,27.17-17.84-4.59,5.99-5.04,11.86-.32,16.3s10.64,3.85,16.25-2.15Z"/>
</svg>