<?xml version="1.0" encoding="UTF-8" standalone="no"?>
<!DOCTYPE svg PUBLIC "-//W3C//DTD SVG 1.1//EN" "http://www.w3.org/Graphics/SVG/1.1/DTD/svg11.dtd">
<svg width="100%" height="100%" viewBox="0 0 487 596" fill="#B89968" version="1.1" xmlns="http://www.w3.org/2000/svg" xmlns:xlink="http://www.w3.org/1999/xlink" xml:space="preserve" xmlns:serif="http://www.serif.com/" style="fill-rule:evenodd;clip-rule:evenodd;stroke-linejoin:round;stroke-miterlimit:2;">
    <g transform="matrix(1,0,0,1,-970.74,0.01)">
        <path d="M1402.63,396.73L1411.48,391.73C1415.73,389.33 1417.22,384.85 1415.39,380.41L1408.98,364.9C1406.51,358.93 1409.09,351.92 1414.09,348.27C1426.27,339.38 1441,339.56 1446.55,331.46C1448.7,328.31 1446.71,321.71 1444.43,318.42L1425.14,290.64C1414.51,275.32 1399.04,254.17 1397.47,236.47C1397.02,231.45 1397.03,225.53 1397.72,220.83L1399.69,207.5C1402.39,189.23 1391.89,148.29 1384.55,128.2C1376.54,106.26 1364.78,87.02 1348.74,69.86C1314.57,33.31 1262.85,13.77 1213.03,9.96L1176.56,9.96C1143.93,12.68 1112.42,21.38 1083.89,36.87C1025.79,68.41 987.89,126.17 981.84,191.87L980.94,204.46C980.52,210.35 980.58,215.69 980.91,221.6L981.67,235.27C987.76,293.71 1011.56,332.56 1039.54,382.14C1055.3,410.07 1063.05,440.03 1064.88,471.84L1065.03,497.37L1064.24,507.6C1061.97,536.96 1055.32,565.67 1047.69,593.69C1047.29,595.18 1043.48,595.76 1042.12,595.48C1040.76,595.2 1037.76,593.04 1038.13,591.55C1044.76,564.69 1051.57,538.97 1053.45,511.5L1054.69,493.41L1054.69,472.55C1053.27,453.12 1050.31,434.37 1043.64,416.21C1038.18,401.32 1031.03,388.23 1023.32,374.48L1006.45,344.37L995.41,322.27C981.19,293.79 973.07,263.19 970.74,231.26L970.74,198.67C974.09,145.39 996.58,95.25 1035.7,58.95C1059.53,36.84 1087.09,20.82 1118.15,11.35C1136.81,5.66 1155.07,1.46 1174.65,0.03L1215.05,-0.01C1291.14,6.42 1361.66,44.83 1391.25,117.56C1401.22,142.05 1412.79,184.82 1409.59,209.47L1408.66,216.64C1404.74,232.28 1408.01,247 1416.8,259.94L1439.08,292.7C1445.01,301.42 1451.16,309.71 1455.4,319.24C1459.64,328.77 1456.65,339.41 1446.88,344.3L1424.09,353.24C1422.17,353.99 1418.06,357.47 1418.47,359.51C1421.19,373.31 1436.32,388.14 1415.89,400.96C1423.68,408.76 1423.58,419.13 1416,426.32C1404.01,437.68 1408.59,440.5 1410.1,453.7L1411.45,465.51C1412.09,483.29 1401.64,499.19 1384.54,504.73C1379.86,506.24 1374.23,508.14 1369.26,508.22L1326.83,508.94C1302.52,509.35 1285.23,529.58 1283.33,551.58L1280.92,579.44L1280.2,594.4L1270.43,594.2L1270.63,571.55L1271.44,560.36L1273.42,546.54C1274.5,538.96 1277.53,532.19 1281.39,525.34C1289.98,510.07 1305.97,500.73 1323.87,498.98L1367.81,498.06C1377.23,497.86 1386.37,494.69 1392.9,488.19C1402.42,478.73 1402.16,462.14 1398.56,449.2C1391.68,424.49 1414.59,421.14 1411.15,411.59C1410.26,409.11 1406.89,406.53 1404.46,405.33C1401.63,403.93 1399.28,398.61 1402.63,396.72L1402.63,396.73Z" style="fill-rule:nonzero;"/>
        <path d="M1198.83,233.78C1158.1,232.7 1122.35,216.29 1093.3,189.53C1090.73,187.16 1086.53,184.36 1086.29,180.64C1087.89,176.29 1092.03,173.46 1095.41,170.55C1113.24,155.19 1132.55,142.6 1155.05,135.27C1170.67,130.18 1185.73,127.14 1202.54,128.6C1241.43,131.98 1277.36,150.41 1304.05,178.69C1305.87,180.62 1302.75,185.49 1300.63,185.84C1284.43,201.83 1266.06,214.25 1244.93,223.09C1230.34,229.2 1215.3,231.55 1198.83,233.78ZM1168.86,213.58C1183.1,225.69 1202.74,226.66 1218.08,216.89C1232.83,207.51 1240.36,189.25 1236.27,171.7C1234.01,161.99 1229.83,154.14 1221.9,147.56C1204.64,133.23 1177.6,135.74 1163.44,153.4C1149.28,171.06 1150.47,197.94 1168.86,213.57L1168.86,213.58ZM1155.57,215.78C1138.7,192.07 1139.02,167.5 1157.41,145.24C1135.24,153.13 1115.73,164.95 1098.64,181.48L1121.34,198.4C1131.7,206.12 1142.88,211.6 1155.57,215.79L1155.57,215.78ZM1252.37,208.94C1267.2,201 1279.77,191.02 1292.99,180.65L1285.99,174.65C1271.25,162 1254.08,152.44 1235.15,146.03C1251.92,170.54 1250.79,192.47 1235.53,215.69L1252.37,208.95L1252.37,208.94Z" style="fill-rule:nonzero;"/>
        <path d="M1168.86,213.58C1150.47,197.95 1148.77,171.71 1163.44,153.41C1178.11,135.11 1204.64,133.24 1221.9,147.57C1229.83,154.15 1234,162 1236.27,171.71C1240.36,189.26 1232.82,207.52 1218.08,216.9C1202.74,226.66 1183.1,225.69 1168.86,213.59L1168.86,213.58ZM1216.92,173.49C1211.31,179.49 1205.24,179.94 1200.67,175.64C1196.1,171.34 1196.4,165.33 1200.99,159.34C1187.85,155.62 1176.43,164.54 1173.82,177.18C1172.36,184.27 1175.43,191.54 1180.18,196.13C1185.3,201.07 1192.46,203.53 1199.71,202.03C1213.12,199.25 1221.75,185.79 1216.91,173.5L1216.92,173.49Z" style="fill:none;fill-rule:nonzero;"/>
        <path d="M1252.37,208.94L1235.53,215.68C1250.8,192.46 1251.92,170.54 1235.15,146.02C1254.08,152.43 1271.25,161.99 1285.99,174.64L1292.99,180.64C1279.77,191.01 1267.2,200.99 1252.37,208.93L1252.37,208.94Z" style="fill:none;fill-rule:nonzero;"/>
        <path d="M1155.57,215.78C1142.88,211.6 1131.7,206.11 1121.34,198.39L1098.64,181.47C1115.73,164.94 1135.23,153.12 1157.41,145.23C1139.03,167.49 1138.71,192.06 1155.57,215.77L1155.57,215.78Z" style="fill:none;fill-rule:nonzero;"/>
        <path d="M1216.92,173.49C1221.76,185.78 1213.13,199.24 1199.72,202.02C1192.47,203.52 1185.32,201.07 1180.19,196.12C1175.44,191.53 1172.37,184.26 1173.83,177.17C1176.43,164.52 1187.86,155.61 1201,159.33C1196.41,165.32 1195.96,171.19 1200.68,175.63C1205.4,180.07 1211.32,179.48 1216.93,173.48L1216.92,173.49Z" style="fill-rule:nonzero;"/>
    </g>
</svg>
