<?xml version="1.0" encoding="UTF-8" standalone="no"?>
<!DOCTYPE svg PUBLIC "-//W3C//DTD SVG 1.1//EN" "http://www.w3.org/Graphics/SVG/1.1/DTD/svg11.dtd">
<svg width="100%" height="100%" viewBox="0 0 664 523" fill="#B89968" version="1.1" xmlns="http://www.w3.org/2000/svg" xmlns:xlink="http://www.w3.org/1999/xlink" xml:space="preserve" xmlns:serif="http://www.serif.com/" style="fill-rule:evenodd;clip-rule:evenodd;stroke-linejoin:round;stroke-miterlimit:2;">
    <g transform="matrix(1,0,0,1,-1717.28,-51.5409)">
        <path d="M2008.66,546.62L1991.64,533.18C1980.29,524.22 1974.19,511.24 1971.9,497.14C1944.37,506.16 1913.87,511.06 1886.38,508.65C1864.07,507.54 1842.93,503.76 1821.34,498.62L1816.78,494.32C1818.98,489.94 1821.36,486.26 1824.43,482.5C1801.03,477.51 1778.86,471.25 1757.32,461.5L1718.92,439.03L1717.33,435.03C1716.98,434.16 1718.57,432.04 1719.38,431.51L1737.43,419.58L1765.16,404.2C1779.44,397.65 1793.52,391.85 1808.42,388.05L1792.17,374.52L1781.38,364.49L1766.39,349.31C1748.42,329.46 1733.11,307.99 1720.58,284.26C1719.32,281.87 1720.76,277.99 1723.4,277.45C1757.16,270.56 1791.07,270.48 1826.11,277.77C1818.35,255.62 1811.3,233.3 1809.22,209.57L1807.99,195.58L1807.02,185.33C1806.8,183.03 1808.44,177.19 1811.22,177.77L1828.49,181.35C1849.19,185.64 1868.33,193 1887.15,202.62L1886.99,195.64C1886.87,190.22 1886.55,185.71 1886.92,180.34L1887.65,169.69C1890.73,144.63 1897.35,120.84 1907.71,97.96C1908.49,96.25 1909.43,94.46 1910.47,93.83C1911.68,93.09 1915.19,93.55 1916.58,94.29C1940.38,107 1962.37,121.97 1982.58,140.88L1992.06,119.23C2001.24,102.66 2011.51,87.46 2024.73,73.93L2044.5,53.69C2047.33,50.79 2051.08,50.82 2054.03,53.81L2073.86,73.93C2089.41,89.71 2101.22,108.2 2110.11,128.55L2115.05,142.06L2125.77,131.92C2143.19,117.51 2161.42,105.28 2181.27,94.44C2182.41,93.82 2185.31,93.31 2186.44,93.57C2187.57,93.83 2189.37,95.57 2189.97,96.87C2202.22,123.22 2208.78,150.88 2210.89,179.84L2210.98,200.65C2210.98,201.07 2211.11,202.46 2211.2,202.79L2241.17,190.24C2253.6,186.2 2284.75,176.04 2288.9,179.28C2289.71,179.91 2290.54,182.22 2290.48,183.25L2289.48,201.47C2288.58,217.8 2285.66,233.41 2280.85,249.13L2272.59,276.15C2272.41,276.73 2271.67,277.93 2271.41,278.18C2271.15,278.43 2272.68,278.1 2273.16,278.04L2312.69,272.85L2337.21,272.73L2347.33,273.63L2373.45,277.1C2374.47,277.24 2376.56,278.5 2377.27,279.15C2378.11,279.92 2378.38,282.66 2377.77,283.84C2366.02,306.59 2351.84,326.89 2334.78,345.98L2308.93,372.03L2294.79,383.89L2291.65,386.41L2292.01,387.74C2322.89,397.22 2351.13,411.48 2377.21,430.48C2379.33,432.02 2382.32,436.7 2379.56,438.63C2367.45,447.06 2355.35,454.94 2341.9,460.93C2320.07,470.65 2298.33,477.63 2274.72,482.1L2280.04,490.8C2280.55,491.63 2281.78,493.97 2281.19,494.71L2278.56,498.01C2261.31,502.35 2244.23,505.6 2226.33,507.68L2211.27,508.8C2202.17,509.47 2193.56,509.69 2184.36,508.63C2165.03,507.64 2146.64,503.41 2128.4,497.42C2128.15,497.26 2126.68,496.2 2126.61,496.53L2126.1,499.16C2123.36,513.27 2116.79,524.93 2106.07,534.27L2079.24,554.41L2053.75,572.94C2050.91,575 2048.06,574.27 2045.41,572.41L2008.65,546.59L2008.66,546.62ZM2057.12,155.14L2067.24,165.53L2077.64,177.15L2082.56,183.04C2089.84,171 2097.58,160.36 2107.02,150.17L2097.13,124.55C2089.36,108.39 2079.34,93.78 2066.82,80.96L2049.38,63.1C2032.06,79.19 2017.41,96.48 2005.2,116.33L1991.77,145.04C1990.23,148.34 1992.07,150.91 1994.3,153.35C2002.61,162.44 2009.12,171.69 2015.82,182.9L2023.79,173.92L2048.37,148.89C2051.72,150.3 2054.42,152.38 2057.11,155.14L2057.12,155.14ZM1967.78,262.21C1978.3,235.5 1992.46,212.34 2009.12,191.02C1987.96,153.24 1952.66,125.75 1915.6,105.2C1905.9,127.88 1899.53,150.68 1897.71,174.73L1897.46,207.95C1916.2,217.35 1932.26,228.65 1947.63,242.16L1967.77,262.21L1967.78,262.21ZM2130.35,262.95C2149.67,239.62 2173.47,223.07 2199.83,208.78C2201.55,199.24 2201.61,189.85 2200.86,180C2198.89,154.01 2193.57,128.9 2182.74,105.18C2163.04,115.54 2146.13,127.85 2129.68,141.85L2108.61,162.75C2101.33,171.87 2094.69,180.95 2089.37,191.06C2106.67,213.2 2120.09,236.46 2130.34,262.95L2130.35,262.95ZM2104.84,391.47C2121.26,372.42 2128.79,349.24 2130.82,324.72C2134.74,277.36 2102.27,221.06 2071.67,185.25L2065.88,178.91L2049.7,161.62C2021.92,188.29 1998.41,218.63 1982.54,253.5C1958.67,305.95 1960.22,363.69 2004.58,403.25C2017.97,415.2 2032.74,424.22 2049.43,431.97C2069.33,421.69 2090.79,409.32 2104.85,391.47L2104.84,391.47ZM1957.82,334.17L1957.72,302.79C1957.69,292.38 1961.34,282.41 1963.99,272.77L1956.91,264.87L1943.86,251.9C1906.87,220.11 1866.48,200.43 1817.7,188.86C1821.29,250.31 1845.9,314.5 1887.38,360.35L1904.04,376.94C1936.83,405.25 1978.8,424.01 2022.46,429.67C1986.96,406.92 1962.4,377.3 1957.81,334.16L1957.82,334.17ZM2194.05,377.28L2204.22,367.32C2223.13,348.81 2238.01,327.55 2249.25,303.5C2267.48,268.75 2277.56,228.88 2280.51,188.96C2233.8,199.46 2191.14,220.72 2155.28,251.32L2139.45,266.67C2137.41,268.96 2135.49,271.6 2134.1,274.29C2139.17,291.57 2142.32,308.49 2140.95,326.22C2139.14,349.76 2132.1,372.34 2118.24,391.38C2106.94,406.89 2092.42,417.92 2076.78,429.61C2120.56,423.23 2161.4,405.57 2194.03,377.27L2194.05,377.28ZM2003.63,437.17C1919.07,417.15 1865.04,368.37 1830.75,289.29L1796.41,283.55L1786.21,282.66L1762.83,282.91L1750.84,284.01L1733.92,286.58L1740.04,296.89C1750.09,313.83 1761.92,328.88 1775.35,343.56C1827.14,400.18 1892.42,429.33 1968.44,437.35L2003.64,437.17L2003.63,437.17ZM2138.1,436.64C2175.99,432 2212.47,421.59 2245.7,404C2262.89,394.9 2278.72,384.91 2293.04,372.32L2305.98,360.94C2329.11,339.41 2348.93,314.75 2365.21,286.1C2331.99,279.88 2298.97,281.73 2267.04,289.71C2255.04,319.11 2238.79,345.04 2218.09,368.22C2200.1,386.91 2180.48,402.7 2157.47,414.61C2136.61,424.92 2115.45,432.14 2093.17,437L2101.94,438.04C2108.97,438.88 2116.09,438.28 2123.24,437.74L2138.1,436.64ZM2323.3,458.09C2338.67,451.54 2352.19,445.06 2366.18,435.43C2355.17,427.05 2344.49,420.91 2332.74,415.02C2315.77,406.16 2298.39,399.7 2279.7,395.43C2259.21,409.06 2238.05,419.42 2215.01,428.67C2235.28,440.46 2252.66,455.22 2267.49,473.6C2286.67,469.73 2304.95,465.43 2323.3,458.08L2323.3,458.09ZM1841.09,461.22C1853.47,448.48 1867.37,438.18 1883.06,428.59C1860.69,419.35 1840.06,409.26 1820.45,396.41C1788.41,403.05 1758.97,415.69 1732.66,435.18L1748.49,445.48C1774.11,458.96 1801.28,468.34 1830.12,472.9L1841.08,461.22L1841.09,461.22ZM2026.42,453.2L2033.53,446.77C2028.93,446.3 2024.94,446.44 2020.19,447.44L1966.63,446.99C1942.39,445.39 1919.57,440.22 1896.68,433.25C1869.66,446.56 1847.88,465.99 1831.36,490.28C1860.4,497.79 1890.37,500.12 1920.02,498C1942.77,496.37 1963.75,489.77 1984.46,480.7C2000,473.89 2013.67,464.74 2026.42,453.21L2026.42,453.2ZM2071.66,452.67C2083.05,463 2094.96,470.66 2108.31,477.57C2133.6,490.66 2160.28,497.41 2188.7,499.07L2209.88,499.09L2223.87,497.99C2239.03,496.79 2253.19,494.07 2267.44,490.37L2251.89,470.96L2237.18,456.64C2226.87,446.6 2214.83,438.96 2201.77,433.41C2178.58,440.71 2155.93,446.18 2132.11,447.11L2113.49,447.84L2103.26,447.82L2080.34,447.22L2072.42,446.51L2064.07,445.78L2071.69,452.68L2071.66,452.67ZM2049.87,563.48L2086.08,537.25C2102.97,525.01 2112.14,517.17 2116.71,495.47C2116.19,492.32 2114.84,491.81 2112.1,490.61C2088.28,480.16 2067.94,464.66 2049.08,446.02C2034.3,462.48 2017.18,475.06 1998.22,485.33L1981.62,493.13C1982.76,507.79 1990.21,520.33 2001.9,528.9L2035.38,553.43L2049.89,563.48L2049.87,563.48Z" style="fill-rule:nonzero;"/>
        <path d="M2104.84,391.47C2090.79,409.32 2069.32,421.69 2049.42,431.97C2032.72,424.22 2017.96,415.2 2004.57,403.25C1960.21,363.69 1958.66,305.95 1982.53,253.5C1998.4,218.63 2021.91,188.29 2049.69,161.62L2065.87,178.91L2071.66,185.25C2102.26,221.06 2134.73,277.36 2130.81,324.72C2128.78,349.24 2121.26,372.41 2104.83,391.47L2104.84,391.47Z" style="fill:none;fill-rule:nonzero;"/>
        <path d="M2194.05,377.28C2161.42,405.59 2120.58,423.24 2076.8,429.62C2092.44,417.93 2106.96,406.9 2118.26,391.39C2132.12,372.35 2139.15,349.77 2140.97,326.23C2142.34,308.5 2139.18,291.58 2134.12,274.3C2135.51,271.61 2137.44,268.97 2139.47,266.68L2155.3,251.33C2191.16,220.73 2233.82,199.47 2280.53,188.97C2277.58,228.89 2267.5,268.76 2249.27,303.51C2238.03,327.56 2223.15,348.81 2204.24,367.33L2194.07,377.29L2194.05,377.28Z" style="fill:none;fill-rule:nonzero;"/>
        <path d="M1957.82,334.17C1962.4,377.31 1986.96,406.93 2022.47,429.68C1978.81,424.02 1936.84,405.26 1904.05,376.95L1887.39,360.36C1845.91,314.51 1821.3,250.32 1817.71,188.87C1866.49,200.43 1906.88,220.12 1943.87,251.91L1956.92,264.88L1964,272.78C1961.36,282.42 1957.7,292.39 1957.73,302.8L1957.83,334.18L1957.82,334.17Z" style="fill:none;fill-rule:nonzero;"/>
        <path d="M2138.1,436.64L2123.24,437.74C2116.09,438.27 2108.98,438.87 2101.94,438.04L2093.17,437C2115.45,432.14 2136.62,424.92 2157.47,414.61C2180.48,402.7 2200.1,386.91 2218.09,368.22C2238.79,345.04 2255.05,319.1 2267.04,289.71C2298.97,281.74 2331.99,279.88 2365.21,286.1C2348.93,314.75 2329.11,339.42 2305.98,360.94L2293.04,372.32C2278.72,384.91 2262.89,394.9 2245.7,404C2212.47,421.59 2175.99,432 2138.1,436.64Z" style="fill:none;fill-rule:nonzero;"/>
        <path d="M2003.63,437.17L1968.43,437.35C1892.41,429.33 1827.13,400.18 1775.34,343.56C1761.91,328.88 1750.08,313.83 1740.03,296.89L1733.91,286.58L1750.83,284.01L1762.82,282.91L1786.2,282.66L1796.4,283.55L1830.74,289.29C1865.03,368.37 1919.06,417.15 2003.62,437.17L2003.63,437.17Z" style="fill:none;fill-rule:nonzero;"/>
        <path d="M2130.35,262.95C2120.1,236.46 2106.68,213.21 2089.38,191.06C2094.7,180.95 2101.34,171.87 2108.62,162.75L2129.69,141.85C2146.14,127.85 2163.05,115.54 2182.75,105.18C2193.58,128.9 2198.9,154.02 2200.87,180C2201.62,189.85 2201.56,199.23 2199.84,208.78C2173.47,223.07 2149.67,239.61 2130.36,262.95L2130.35,262.95Z" style="fill:none;fill-rule:nonzero;"/>
        <path d="M1967.78,262.21L1947.64,242.16C1932.28,228.65 1916.22,217.35 1897.47,207.95L1897.72,174.73C1899.54,150.67 1905.91,127.88 1915.61,105.2C1952.67,125.75 1987.96,153.24 2009.13,191.02C1992.46,212.34 1978.31,235.5 1967.79,262.21L1967.78,262.21Z" style="fill:none;fill-rule:nonzero;"/>
        <path d="M2049.87,563.48L2035.36,553.43L2001.88,528.9C1990.19,520.33 1982.74,507.79 1981.6,493.13L1998.2,485.33C2017.16,475.06 2034.29,462.48 2049.06,446.02C2067.92,464.66 2088.26,480.16 2112.08,490.61C2114.82,491.81 2116.16,492.32 2116.69,495.47C2112.12,517.17 2102.95,525.02 2086.06,537.25L2049.85,563.48L2049.87,563.48Z" style="fill:none;fill-rule:nonzero;"/>
        <path d="M2071.66,452.67L2064.04,445.77L2072.39,446.5L2080.31,447.21L2103.23,447.81L2113.46,447.83L2132.08,447.1C2155.9,446.17 2178.55,440.69 2201.74,433.4C2214.81,438.95 2226.84,446.59 2237.15,456.63L2251.86,470.95L2267.41,490.36C2253.16,494.06 2239,496.79 2223.84,497.98L2209.85,499.08L2188.67,499.06C2160.25,497.4 2133.57,490.65 2108.28,477.56C2094.93,470.65 2083.03,462.99 2071.63,452.66L2071.66,452.67Z" style="fill:none;fill-rule:nonzero;"/>
        <path d="M2026.42,453.2C2013.67,464.74 2000,473.88 1984.46,480.69C1963.75,489.76 1942.77,496.36 1920.02,497.99C1890.37,500.11 1860.41,497.78 1831.36,490.27C1847.88,465.98 1869.66,446.56 1896.68,433.24C1919.58,440.21 1942.39,445.39 1966.63,446.98L2020.19,447.43C2024.93,446.43 2028.93,446.29 2033.53,446.76L2026.42,453.19L2026.42,453.2Z" style="fill:none;fill-rule:nonzero;"/>
        <path d="M2057.12,155.14C2054.43,152.37 2051.73,150.3 2048.38,148.89L2023.8,173.92L2015.83,182.9C2009.13,171.69 2002.62,162.44 1994.31,153.35C1992.08,150.91 1990.24,148.34 1991.78,145.04L2005.21,116.33C2017.42,96.48 2032.07,79.19 2049.39,63.1L2066.83,80.96C2079.35,93.78 2089.37,108.39 2097.14,124.55L2107.03,150.17C2097.58,160.36 2089.84,171 2082.57,183.04L2077.65,177.15L2067.25,165.53L2057.13,155.14L2057.12,155.14Z" style="fill:none;fill-rule:nonzero;"/>
        <path d="M2323.3,458.09C2304.95,465.44 2286.67,469.74 2267.49,473.61C2252.66,455.23 2235.28,440.47 2215.01,428.68C2238.05,419.43 2259.21,409.07 2279.7,395.44C2298.39,399.7 2315.77,406.17 2332.74,415.03C2344.49,420.92 2355.17,427.06 2366.18,435.44C2352.19,445.07 2338.67,451.54 2323.3,458.1L2323.3,458.09Z" style="fill:none;fill-rule:nonzero;"/>
        <path d="M1841.09,461.22L1830.13,472.9C1801.29,468.35 1774.12,458.97 1748.5,445.48L1732.67,435.18C1758.97,415.69 1788.42,403.05 1820.46,396.41C1840.07,409.26 1860.69,419.35 1883.07,428.59C1867.38,438.18 1853.47,448.47 1841.1,461.22L1841.09,461.22Z" style="fill:none;fill-rule:nonzero;"/>
    </g>
</svg>
