<?xml version="1.0" encoding="UTF-8"?>
<svg id="Ebene_1" data-name="Ebene 1" fill="#B89968" xmlns="http://www.w3.org/2000/svg" width="707.46" height="455.38" viewBox="0 0 707.46 455.38">
  <defs>
    <style>
      .cls-1 {
        fill: none;
      }
    </style>
  </defs>
  <path d="M169.5,294.71l-9.2-10.02c.19-2.53,2.91-5.29,6.1-6.9l12.01,12.68,31.98,32.78,7.04,7.07,19.86,19.04,13.05,11.99,11.51,10.52,31.01,27.96,14.48,13.53,14.4,13.61,17.13,16.28,19.46-18.89,22.95-21.98,11.04-10.04,12-10.98,12.01-11,12.99-11.99,12.03-10.99,15.08-14.09,39.11-38.7-11.12-49.37-6.57-30.3c-8.27-10.8-16.96-21.25-28.06-28.74s-23.89-6.95-33.33,1.38l-11.12,9.8c-7.39,6.52-12.83,14.63-18.21,22.59l-10.71,44.56c-4.24,17.65-10.1,34.44-18.45,50.4-3.12,5.97-7.02,10.73-11.97,15.32-7.21,6.69-18.62,7.07-27.07,1.35s-14.49-14.29-19.33-23.55c-9.87-18.88-17.35-37.82-23.59-58.51-9.27-9.07-19.55-16.66-31.42-22.44-27.69-13.48-53.62,10.47-74.26,30.21l-21.01,20.1c-9.56,9.14-20.95,15.83-34.23,17.69-10.31,1.45-20.33-1.26-29.71-5.93-7.48-3.72-14.08-9-20.84-14l-21.83-16.18c-12.01-7.48-24.94-11.8-39.47-10.38-1.57-1.28-2.95-3.22-3.21-4.67-.25-1.37,1.14-4.96,2.59-5.17,12.17-1.78,24.52,1.49,35.54,6.77,27.19,13.02,43.55,37.19,69.27,39.51,11.32,1.02,22.55-4.64,30.62-11.73l7.02-6.17c-27.7-34.32-49.18-71.12-55.86-114.64l-1.29-12.12c-.73-6.84-.33-12.89.13-20.05,2.21-33.81,18.26-64.21,43.59-86.79C158.71,9.39,194.84-2.15,231.3.33c27.74,1.89,52.7,12.76,74.2,29.86l18.32,18.6c6.54,6.64,11.09,14.59,15.23,22.83,7.41-15.27,17.71-27.38,30.15-38.61C390.97,13.35,419.76,2.09,449.12.35c23.68-1.41,44.86,3.66,66.14,13.07,41.92,18.54,69.75,58.31,73.63,104.27,2.71,32.03-4.34,62.78-18.75,91.47-11,21.9-23.67,41.65-40.41,60.67,9.43,10.63,24.48,24.97,38.69,24.59l14.85-43.07,10.91-25.03c5.31-12.2,18.49-28.08,32.13-28.08,4.79,0,10.49.12,14.62,2.41,7.5,4.17,13.57,9.68,18.8,16.3,4.16,5.26,9.67,8.97,15.06,12.9,9.07,6.6,19.01,9,30.25,8.82,2.6.15,3.32,7.69,1.12,8.37l-22.57.71c-17.02.53-31.48,8.91-44.33,19.54l-25.72,21.28c-10.74,8.88-22.95,14.96-37.09,16.04l-9.79,26.12c-5.32,14.2-15.05,34.34-29.3,35.43-8.35.64-14.56-4.64-18.89-11.06-6.96-10.3-11.58-21.68-15.32-33.57l-4.93-15.65-15.07,15.37-4.96,5-15.88,15.12-15.02,13.98-13.99,13-12.01,11-11,10.03-12.03,11.01-15.96,14.99-17.12,16.03-24.2,23.67c-1.1.9-4.9-.43-6.01-1.51l-19.65-19.17-20-19-11.04-10.03-12.01-11-14-12.99-14.98-13.99-14.09-13.02-26.88-25.93-15.07-15.06-17.81-18.65.06-.02ZM448.93,81.41c5.46,6.43,9.21,13.58,12.14,21.35,7.09,18.79,12.26,37.76,16.25,57.61l10.18,50.69,13.67,20.61,22.13,30.55c44.62-53.51,75.56-122.81,42.52-188.21-4.24-8.39-8.79-16.14-15.44-22.64l-9.1-8.89c-10.09-9.86-21.91-16.35-35.04-22.12-33.45-14.73-76.5-13.55-108.7,5.16-26.44,15.37-38.99,31-53.48,57.51-.76,1.39-2.99,3.52-4.33,3.44-1.15-.07-3.33-1.07-4.72-1.8-8.03-15.6-17.39-29.76-29.96-41.82-19-16.5-40.55-28.24-65.65-31.43-27.3-3.47-54.15.98-78.19,13.7-15.97,8.45-28.72,20.34-39.71,34.52-19,24.51-25.59,55.9-22.27,86.8,4.33,40.26,26.53,81.44,53.04,112.74,8.77-10.96,14.69-22.23,20.92-33.92l8.72-16.36c7.53-14.65,16.44-28.21,29.35-38.43,11.74-9.29,26.99-7.55,36.99,3.09,4.43,4.71,8.67,9.26,11.97,15.06,9.35,16.44,15.82,33.51,22.44,51.56,11.46,10.77,28.15,22.41,43.25,21.8,9.36-.37,16.56-5.07,23.5-10.62,9.38-7.49,15.93-17.3,22.91-27.03,2.76-3.84,4.9-7.39,6.01-12.06l13.05-54.89c5.62-23.66,14.44-60.79,29.11-76.61,8.08-8.72,20.6-8.59,28.45.65h-.01ZM461.87,182.84l11.83,10.53-11.25-52.11c-3.64-16.88-13.35-51.41-26.51-57.52-3.36-1.56-7.93,2.04-9.49,4.56l-6.17,10.04c-5.89,13.61-10.9,27.12-14.27,41.66l-12.91,55.7,14.72-13.96c14.85-14.09,37.78-13.39,54.05,1.09h0ZM254.31,220.9l13.36,8.48c-8.77-22.37-27.39-69.56-50.41-50.99-9.16,7.39-16.07,16.73-21.73,27.17l-15.68,28.95c9.59-6.89,17.6-13.31,27.87-17.73,15.39-6.61,32.13-5.06,46.59,4.12h0ZM638.99,254.97c10.24-7.3,21.3-13.04,33.63-15.14-15.25-8.85-23.11-22.71-36.12-30.64-15.88-7.93-30.44,12.52-37.16,28.26-8.01,18.77-13.95,37.9-19.73,57.02,15.79-4.05,27.6-12.81,39.28-22.62l20.1-16.87h0ZM514.15,273.47c.68-.96,1.82-3.04,1.92-3.97l-22.78-31.27,10.19,46.46,10.67-11.23h0ZM324.72,323.97c14.85,12.53,31.37-25.16,36.28-42.96l10.45-37.88-9.84,10.53c-9.17,10.26-21.16,17.03-35.25,17.83-13.23-.64-24.76-5.1-36.52-12.38,8.12,22.59,17.49,50.19,34.87,64.86h0ZM538.53,356.44c14.5-12.02,20.94-34.3,27.29-51.94-12.1-2.48-21.95-7.28-30.48-15.17l-12.38-11.44-16.67,19.2,7.36,24c2.98,9.72,6.99,19.03,12.28,27.53,2.86,4.59,6.68,7.83,12.6,7.8v.02Z"/>
  <path class="cls-1" d="M448.93,81.41c-7.85-9.24-20.37-9.37-28.45-.65-14.67,15.83-23.49,52.95-29.11,76.61l-13.05,54.89c-1.11,4.66-3.25,8.21-6.01,12.06-6.98,9.73-13.53,19.54-22.91,27.03-6.94,5.54-14.14,10.24-23.5,10.62-15.09.6-31.79-11.04-43.25-21.8-6.62-18.05-13.08-35.12-22.44-51.56-3.3-5.8-7.54-10.35-11.97-15.06-10-10.64-25.25-12.38-36.99-3.09-12.92,10.22-21.83,23.78-29.35,38.43l-8.72,16.36c-6.23,11.69-12.15,22.96-20.92,33.92-26.51-31.29-48.71-72.48-53.04-112.74-3.32-30.9,3.27-62.29,22.27-86.8,10.99-14.18,23.74-26.07,39.71-34.52,24.04-12.72,50.9-17.17,78.19-13.7,25.1,3.19,46.65,14.93,65.65,31.43,12.57,12.07,21.93,26.22,29.96,41.82,1.39.73,3.57,1.73,4.72,1.8,1.34.09,3.57-2.05,4.33-3.44,14.49-26.51,27.04-42.14,53.48-57.51,32.2-18.71,75.25-19.89,108.7-5.16,13.13,5.78,24.94,12.26,35.04,22.12l9.1,8.89c6.66,6.51,11.2,14.25,15.44,22.64,33.04,65.4,2.1,134.7-42.52,188.21l-22.13-30.55-13.67-20.61-10.18-50.69c-3.98-19.85-9.16-38.82-16.25-57.61-2.93-7.77-6.68-14.92-12.14-21.35h.01Z"/>
  <path class="cls-1" d="M461.87,182.84c-16.27-14.48-39.2-15.18-54.05-1.09l-14.72,13.96,12.91-55.7c3.37-14.54,8.38-28.05,14.27-41.66l6.17-10.04c1.55-2.53,6.12-6.12,9.49-4.56,13.16,6.11,22.86,40.63,26.51,57.52l11.25,52.11-11.83-10.53h0Z"/>
  <path class="cls-1" d="M638.99,254.97l-20.1,16.87c-11.68,9.81-23.49,18.58-39.28,22.62,5.78-19.12,11.72-38.25,19.73-57.02,6.72-15.74,21.28-36.19,37.16-28.26,13.01,7.93,20.87,21.79,36.12,30.64-12.32,2.1-23.39,7.84-33.63,15.14h0Z"/>
  <path class="cls-1" d="M324.72,323.97c-17.38-14.67-26.75-42.26-34.87-64.86,11.76,7.29,23.28,11.74,36.52,12.38,14.09-.81,26.09-7.57,35.25-17.83l9.84-10.53-10.45,37.88c-4.91,17.8-21.43,55.49-36.28,42.96h0Z"/>
  <path class="cls-1" d="M538.53,356.44c-5.93.03-9.74-3.21-12.6-7.8-5.29-8.5-9.3-17.81-12.28-27.53l-7.36-24,16.67-19.2,12.38,11.44c8.54,7.88,18.39,12.69,30.48,15.17-6.35,17.63-12.79,39.92-27.29,51.94v-.02Z"/>
  <path class="cls-1" d="M254.31,220.9c-14.47-9.19-31.21-10.74-46.59-4.12-10.27,4.41-18.28,10.84-27.87,17.73l15.68-28.95c5.66-10.44,12.57-19.78,21.73-27.17,23.02-18.57,41.64,28.63,50.41,50.99l-13.36-8.48Z"/>
  <path class="cls-1" d="M514.15,273.47l-10.67,11.23-10.19-46.46,22.78,31.27c-.1.93-1.24,3-1.92,3.97h0Z"/>
</svg>