<svg width="1000" height="216" viewBox="0 18 1000 216" xmlns="http://www.w3.org/2000/svg">
  <!-- Geometrisches Symbol – vollständig weiß -->
  <g transform="translate(100, 125) scale(0.8)">
    <g stroke="#FFFFFF" stroke-width="1.5">
      <line x1="0" y1="-80" x2="0" y2="-110" />
      <line x1="0" y1="80" x2="0" y2="110" />
      <line x1="-80" y1="0" x2="-110" y2="0" />
      <line x1="80" y1="0" x2="110" y2="0" />
      <g transform="rotate(30)"><line x1="0" y1="-80" x2="0" y2="-110" /><line x1="0" y1="80" x2="0" y2="110" /></g>
      <g transform="rotate(60)"><line x1="0" y1="-80" x2="0" y2="-110" /><line x1="0" y1="80" x2="0" y2="110" /></g>
      <g transform="rotate(120)"><line x1="0" y1="-80" x2="0" y2="-110" /><line x1="0" y1="80" x2="0" y2="110" /></g>
      <g transform="rotate(150)"><line x1="0" y1="-80" x2="0" y2="-110" /><line x1="0" y1="80" x2="0" y2="110" /></g>
    </g>
    <g fill="none" stroke="#FFFFFF" stroke-width="2.5" opacity="0.85">
      <circle cx="-15" cy="0" r="45" />
      <circle cx="15" cy="0" r="45" />
    </g>
    <circle cx="0" cy="0" r="4" fill="#FFFFFF" />
  </g>

  <!-- Textzeilen – vollständig weiß -->
  <text x="230" y="100" font-family="sans-serif" font-weight="300" font-size="16" fill="#FFFFFF" style="letter-spacing: 5px;">GERLINDE PRAMER'S</text>
  <text x="230" y="155" font-family="sans-serif" font-weight="700" font-size="44" fill="#FFFFFF" style="letter-spacing: 2px;">ANAHATA BUSINESS CIRCLE</text>
</svg>
