<?xml version="1.0" encoding="UTF-8" standalone="no"?>
<!DOCTYPE svg PUBLIC "-//W3C//DTD SVG 1.1//EN" "http://www.w3.org/Graphics/SVG/1.1/DTD/svg11.dtd">
<svg width="100%" height="100%" viewBox="0 0 2413 712" version="1.1" xmlns="http://www.w3.org/2000/svg" xmlns:xlink="http://www.w3.org/1999/xlink" xml:space="preserve" xmlns:serif="http://www.serif.com/" fill="#B89968" style="fill-rule:evenodd;clip-rule:evenodd;stroke-linejoin:round;stroke-miterlimit:2;">
    <g transform="matrix(1,0,0,1,0.0164605,-0.02)">
        <path fill="#B89968" d="M1137.49,330.99L1141.58,311.99L1130.53,330.28C1120.93,346.17 1108.8,360.05 1096.03,373.57C1087.6,382.5 1077.87,389.78 1066.72,394.13C1058.37,397.39 1050.3,396.53 1043.14,391.68C1037.09,387.59 1032.72,379.95 1032.68,371.34L1032.62,359.02C1016.2,376.38 986.53,391.46 968.93,375.99C952.95,361.94 961.51,334.78 964,311.84C948.61,318.92 936.26,329.07 925.32,340.92L909.95,357.58L883.6,390.18C881.36,392.95 876.42,394.69 873.4,394.52C865.41,394.06 858.89,384.71 861.25,377.07L869.36,350.83C850.12,368.24 824.56,391.12 800.16,392.68C789.9,393.34 781.27,385.89 777.57,376.63C773.99,367.69 775.04,359.04 775.06,348.58C769.61,355.27 765.47,361.21 759.34,365.98L732.39,386.94C714.21,401.08 681.15,406.69 667.38,384.83C641.98,344.51 678.85,251.56 700.7,209.39C723.21,165.95 750.75,121.19 787.35,89.11C803.24,75.18 826.41,70.3 834.46,86.67C843.33,104.71 829.37,139.1 819.12,157.73L810.19,173.96C791.63,204.11 771.21,232.61 747.48,259.08L691.1,316.77C684.35,323.68 677.08,369.81 693.45,376.64C703.85,380.98 723.75,370.21 734.65,362.19C749.38,351.35 762.77,339.39 775.68,326.38C793,308.92 796.09,287.92 809.46,283.13C815.7,280.9 823.64,285.69 824.9,292.41C825.44,295.29 824.06,299.82 822.66,302.34C814.18,317.62 790.85,361.56 801.76,369.11C808.26,373.61 827.67,362.58 837.08,355.64C849.9,346.18 861.91,336.15 873.27,325.03C880.12,318.34 885.08,310.46 889.41,302.15L897.98,285.68C901.4,279.11 909.79,276.48 916.28,279.87C924.4,284.11 919.66,295.21 915.21,304.82L900.38,336.83L918.65,318.26C932.86,303.81 955.32,286.01 974.84,291.34C991.29,295.83 988.04,312.55 986.6,327.27L984.28,350.99C983.86,355.23 987.46,361.33 991.88,362.01C1002.58,360.04 1011.43,353.73 1020.54,348.31C1030.75,342.24 1037.94,334.88 1044.27,324.81C1059.88,299.97 1084.2,274.16 1114.71,274.14C1124.09,274.14 1130.25,279.01 1133.64,288.49L1163.95,231.61L1190.89,185.57C1213.23,147.39 1252.69,107.26 1289.53,82.06C1353.76,38.13 1435.11,13.7 1511.9,3.91L1552.09,0.02L1620.48,0.02L1657.9,4.42C1679.89,6.99 1700.55,12.36 1721.38,19.91C1753.47,31.54 1788.83,55.2 1797.92,89.07C1801.76,103.37 1801.37,118.59 1798.04,132.93C1789.02,171.74 1750.69,203.64 1717.43,224.08C1687.85,242.26 1656.35,254.65 1623.13,264.76C1593.62,273.74 1564.29,279.42 1533.68,283.2C1531.09,283.52 1528.02,284.41 1525.72,285.46L1496.91,351.58C1484.62,379.79 1477.11,408.92 1471.69,439.16C1470.89,443.62 1468.17,446.17 1463.78,446.51C1458.72,446.9 1454.61,445.59 1451.43,442.17C1442.13,432.18 1452.8,389.92 1459.24,372.83L1475.93,328.5L1494.22,286.35C1493.62,285.62 1492.48,284.65 1492,284.5C1469.74,283.81 1444.46,281.52 1429.77,265.53C1419.85,254.73 1419.23,239.22 1427.94,227.42C1437.84,214.02 1460.47,201.41 1466.74,207.79C1467.92,208.99 1469.11,212.2 1468.82,214.33C1467.74,222.16 1457.53,223.31 1447.69,232.34C1444.08,235.65 1440.67,241.2 1441.31,246.16C1443.62,264.07 1484.81,262.85 1504.8,262.37L1524.65,223.15L1578.39,135.09C1585.97,122.66 1595.16,112.11 1604.78,101.56C1611.84,93.81 1624,95.24 1629.94,103.25C1636.02,111.46 1624.94,121.74 1619.66,128.44C1596.46,157.9 1577.1,189.41 1558.42,221.95L1540.28,255.96L1539.04,258.53L1539.76,259.56C1579.92,253.47 1617.64,242.34 1654.79,226.52C1670.81,219.7 1685.03,211.57 1699.78,202.38C1720.74,189.33 1739.7,173.88 1753.83,153.6C1763.39,139.87 1770.09,125.05 1770.23,108.3C1770.51,75.4 1741.93,52.14 1712.77,40.41C1665.62,21.43 1628.9,19.22 1578.73,19.12C1529.19,19.02 1481.18,26.04 1433.91,40.38C1372.64,58.96 1321.51,81.97 1273.32,125C1241.81,153.14 1217.27,187.38 1198.62,225.29C1182.87,257.31 1170.59,290.1 1163.42,325.01C1160.47,339.4 1155.87,366.97 1165.14,370.86C1176.49,375.63 1198.05,358.23 1208.79,348.32C1211.03,346.25 1215.95,343.61 1216.87,340.56C1225.76,311.09 1245.65,279.25 1275.67,270.46C1284.07,268 1293.07,267.23 1300.65,271.58C1310.04,276.97 1312.46,288.63 1308.71,298.24C1305.5,306.47 1301.59,313.72 1295.1,319.78C1284.95,329.27 1274.3,338.59 1261.36,343.88L1242.77,351.49C1239.83,360.77 1245.28,371.65 1255.95,372.35C1265.75,373 1275.2,370.86 1284.35,366.88C1302.98,358.77 1319.35,347.56 1334.72,334.39L1353.09,318.64C1355.72,316.38 1358.41,313.53 1362.17,312.29C1364.38,313.07 1366.76,317.09 1367.23,319.55C1367.64,321.71 1366.07,325.54 1364.07,327.8C1339,356.11 1299.18,388.09 1260.93,392.51C1240.86,395.27 1222.58,383.99 1217.76,364.34C1217.63,364.02 1216.57,362.49 1216.46,362.9C1215.12,367.77 1205.23,374.37 1198.7,379.17C1189.09,386.23 1179.61,392.23 1167.74,394.19C1148.43,397.38 1136.71,380.88 1136,362.38C1135.6,351.79 1135.3,341.2 1137.51,330.97L1137.49,330.99ZM695.74,287.83L710.79,272.27C733.47,248.82 753.67,224.07 772.71,197.34C787.76,176.21 800.1,154.11 810.93,130.64C814.33,123.27 816.44,116.34 818.37,108.39C819.02,105.71 816.13,99.38 812.99,100.77C802.68,105.33 793.99,113.04 787.32,121.9L764.94,151.65C746.15,179.83 729.44,208.36 715.81,239.33L704.82,264.29L695.75,287.83L695.74,287.83ZM1258,325.06C1268.67,318.66 1277.93,311.51 1285.44,302.1C1288.53,298.23 1291.26,294.41 1292.01,288.62C1270.89,292.9 1254.33,311.44 1246.39,332.04L1258.01,325.07L1258,325.06ZM1089.45,350.54L1111.46,323.08L1124.5,302.17C1120.28,298.62 1114.72,294.69 1109.28,295.99C1094.76,299.47 1083.74,309.45 1076.09,321.66C1067.96,334.65 1061.75,347.91 1059.39,363.15C1058.88,366.41 1059.16,369.8 1060.74,372.64C1072.76,368.17 1081.52,360.44 1089.46,350.54L1089.45,350.54Z" fill="#B89968" style="fill-rule:nonzero;"/>
        <path fill="#B89968" d="M639.06,275.88C645.24,275.94 651.56,277.94 655.09,281.83C658.43,285.5 659.64,289.81 658.82,294.72C658.25,298.14 654.69,301.59 650.46,303.45L640.89,296.92C638.41,295.23 632.73,296.88 629.72,298.33C611.45,307.16 597.18,320.61 584.92,336.58C571.98,353.43 560.89,370.55 552.52,390.02C551.08,393.38 547.12,394.68 543.77,394.86C536.87,395.24 530.13,390.55 530.44,382.93C530.93,370.95 536.07,360.02 540.56,347.79C514.16,369.62 479.7,394.62 445.1,392.16C425.78,390.79 412.17,376.37 411.31,356.99L400.23,361.84L360.61,377.46C350.75,412.18 337.69,444.77 323.24,477.78C309.78,508.53 294.97,537.37 277.22,565.86C246.27,615.54 208.75,664.43 157.36,693.87C126.87,711.33 85.35,720.53 57.17,698.16C47.01,690.1 41.78,679.27 39.23,666.86C37.28,657.35 36.66,648.42 38.17,638.77C40.47,624.16 43.82,610.44 50.45,596.94C64.65,568.06 83.36,542.6 106.02,519.67C154.24,470.86 200.24,437.68 260.27,404.87C282.37,392.79 303.84,381.62 327.47,373.34C332.47,371.59 334.68,368.22 335.9,363.39L354.6,289.42L362.53,254.75L353.32,262.94L320.75,290.41C286.05,319.68 235.77,354.9 194.85,373.38C167.93,385.54 140.12,393.82 110.88,397.15C62.96,402.6 12.31,384.7 1.62,334.51C-2.92,313.2 2.58,284.31 10.83,263.41C20.73,238.34 34.01,215.46 50.47,194.13C73.73,163.99 99.94,137.97 129.49,114.13C151.09,96.71 173.36,81.9 197.44,67.99C237.43,44.9 279.78,28.01 325.47,20.34C342.05,17.56 358.04,17.43 374.77,18.66C407.9,21.1 441.52,38.89 449.97,72.02C455.03,91.88 450.04,112.59 438.45,128.89C435.5,133.05 430.84,135.3 425.9,135.1C423.02,134.98 419.87,132.66 418.83,130.7C417.14,127.52 417.91,124.2 419.38,121.06L428.96,100.58C436.41,81.38 428.73,61.09 410.42,51.57C397.2,44.7 383.08,41.61 367.65,41.73C343.09,41.92 319.58,47.13 296.07,54.68C226.43,77.03 157.22,123.58 106.67,176.33C84.25,199.72 64.95,224.94 50.39,253.97C35.83,283 25.18,312.49 34.73,342.46C38.15,353.18 45.43,361.51 55.37,366.86C82.48,381.47 123.86,372.96 153.46,363.16C175.82,355.75 196.01,345.66 216.53,334.19C239.82,321.17 261.31,307.37 282.49,291.12C305.62,273.37 328.19,256.09 349.14,235.85L363.98,221.52C367.45,218.16 371.59,214.37 376.38,213.17C382.08,211.75 388.04,214.8 391.27,218.4C395.26,222.86 396.07,228.46 395.04,234.45L391.04,257.76C385.29,291.26 376.28,323.25 367.21,356.58L376.24,352.93L411.91,339.47C415.99,327.4 420.34,316.49 427.37,305.93C440.58,286.09 464.48,264.99 488.15,268.83C500.67,270.86 507.1,281.44 504.72,293.43C499.26,320.89 470.06,338.01 444.9,348.46C441.6,349.83 437.23,352.55 436.52,355.97C434.72,364.7 441.8,371.16 450.23,372.1C460.4,373.24 470.42,371.02 480.07,366.53C506.02,354.46 528.98,337.25 548.28,315.99C552.92,310.89 554.7,303.37 557.7,297.46L566.46,280.23C568.9,275.42 573.96,273.71 578.94,274.69C596.94,278.21 583.83,300.24 578.52,317.87C594.01,298.96 613.88,275.62 639.04,275.87L639.06,275.88ZM486.18,289.05C476.76,291.31 470.08,296.16 463.21,301.86C453.43,309.97 446.06,319.55 440.82,332.09C456.81,324.38 481.64,307.98 486.18,289.05ZM135.12,674.7C145.77,668.49 155.85,661.94 165.33,653.89C179.64,641.72 192.94,629.18 205.17,614.78C247.99,564.37 278.8,506.84 304.39,446.1C312.1,427.79 319.88,410.65 325.59,391.15C317.16,396.55 309.82,399.39 301.74,403.54C275.4,417.07 249.79,431.17 225.09,447.72C189.93,471.3 157.3,497.07 127.77,527.33C107.24,548.37 89.62,571.42 75.63,597.03C67.28,612.32 62.28,628.25 60.5,645.36C59.2,657.8 62.04,669.67 70.71,678.49C85.33,693.37 116.5,685.55 135.12,674.7Z" fill="#B89968" style="fill-rule:nonzero;"/>
        <path fill="#B89968" d="M1917.29,385.43C1913.82,389.85 1910.04,394.52 1905.83,397.17C1900.57,400.49 1894.95,398.19 1891.21,394.66C1881.45,385.43 1891.81,366.77 1896.8,351.9L1874.58,370.15C1865.84,377.33 1856.01,382.32 1845.38,385.98C1835.89,389.24 1825.09,387.46 1818.86,379.35C1811.58,369.88 1810.96,358.18 1813.03,345.93L1788.59,370.22C1774.22,384.5 1751.26,398.48 1735.11,385.19C1726.93,378.46 1723.52,368.91 1724.73,358.29C1729.18,319.28 1765.6,281.36 1805.8,280.1C1812.5,279.89 1819.47,282.55 1824.57,286.57C1827.33,288.75 1828.21,292.37 1829.92,296.37C1833.18,286.97 1843.06,282.31 1850.82,287.13C1856.45,290.62 1858.04,297.19 1855.31,302.98L1842.2,330.78C1837.3,341.18 1831.65,362.69 1839.87,367.06C1849.85,365.45 1858.23,360.84 1866.31,354.89C1880.36,344.52 1893.46,333.81 1905.39,321.05C1925.39,299.66 1927.55,272.85 1944.24,273.42C1947.33,273.53 1952.23,275.95 1953.39,279.74C1954.73,284.13 1952.9,289.37 1950.75,293.42L1931.97,328.61L1928.76,335.72L1943.58,321.09C1959.21,305.66 1979.81,279.71 2003.81,276.54C2008.97,275.86 2015.36,277.72 2018.6,281.01C2022.27,284.74 2025.07,290.83 2023.85,296.46L2015.48,335C2028.71,320 2046,302.75 2064.78,300.38C2074.65,299.14 2083.13,305.9 2084.33,315.86L2084.03,340.36L2083.51,358.55C2083.44,361.04 2086.09,363.97 2088.63,363.82C2092.87,363.56 2096.97,362.89 2100.46,361.1C2111.33,355.53 2130.25,344.28 2133.43,335.06C2139.2,318.3 2147.28,302.89 2159.43,290.14C2171.58,277.39 2187.57,267.94 2205.39,268.77C2213.62,269.16 2221.53,273.51 2223.84,281.23C2226.89,291.46 2223.98,302.12 2218.19,310.75C2205.99,328.92 2181.78,342.42 2161.33,350.88C2159.52,351.63 2157.03,353.37 2156.4,354.76C2155.77,356.15 2156.38,359.58 2156.77,361.22C2158.6,368.78 2164.06,372.94 2171.87,372.76C2183.65,372.48 2194.58,369.08 2205.19,363.74C2225.08,353.73 2242.64,340.75 2258.86,325.53C2267.53,317.4 2272.22,307.5 2277.26,296.83L2284.94,280.58C2287.53,275.09 2292.13,270.95 2298.33,271.68C2303.08,272.24 2309.57,277.36 2308.63,283.54C2306.97,294.38 2301.73,304.51 2296.73,314.17L2295.77,316.03C2295.59,316.38 2296.96,315.82 2297.34,315.39L2310.68,300.46C2318.31,291.92 2327.57,286.26 2338.41,283.13C2348.42,280.24 2358.49,281.38 2368.1,285.08C2392.33,294.42 2403.19,278.12 2408.66,280.84C2410.01,281.51 2411.92,284.04 2412.41,285.88C2415.4,297.08 2393.07,314.09 2366.46,305.63C2360.71,303.8 2354.23,300.73 2348.01,301.74C2316.51,306.85 2286.4,357.61 2273.13,386.62C2271.78,389.57 2269.67,392.03 2267.54,393.99C2258.21,396.55 2249.72,391.89 2247.71,382.69L2258.38,349.08C2258.4,348.85 2258.47,347.07 2258.24,347.27L2256.88,348.48L2230.19,370.74L2211.07,381.64C2199.97,387.97 2187.74,391.12 2174.82,392.38C2163.61,393.47 2151.96,390.94 2143.22,384.02C2135.97,378.28 2133.32,369.59 2132.45,359.75C2117.22,375.57 2087.33,392.81 2069.91,379.24C2055.32,367.87 2059.91,342.93 2060.74,323.11C2057.85,323.64 2054.5,324.83 2052.06,326.63C2041.43,334.51 2032.24,343.28 2023.78,353.35L2007.73,372.45C2002.52,378.65 1994.35,380.98 1988.64,377.07C1979.63,370.9 1984.11,354.11 1987.65,341.19L1998.4,302.05C1991.03,302.37 1985.88,306.14 1981.35,311.09L1941.8,354.29L1917.31,385.41L1917.29,385.43ZM2206.24,290.36C2198.32,290.59 2192.37,293.89 2186.78,298.42C2175.85,307.26 2166.31,317.73 2161.73,331.85C2180.85,322.44 2197.95,310.58 2206.24,290.37L2206.24,290.36ZM1772.58,356.65C1785.09,347.37 1795.3,337.31 1805.25,325.88C1811,319.27 1816.65,313.17 1821.33,305.19C1811.2,296.63 1795.72,299.36 1785.15,306.8C1766.31,320.05 1748.63,342.93 1750.51,366.34C1759.42,365.94 1765.85,361.64 1772.58,356.66L1772.58,356.65Z" fill="#B89968" style="fill-rule:nonzero;"/>
        <path fill="#B89968" d="M1730.96,303.31C1720.35,296.19 1714.32,294.88 1702.83,301.44C1687.36,310.27 1675.41,322.31 1664.8,336.44C1652.2,353.21 1641.34,370.24 1632.9,389.34C1631.06,393.5 1626.93,394.97 1622.78,394.65C1618.22,394.3 1614.52,392.45 1612.13,389.37C1609.27,385.68 1609.46,381.16 1610.81,376.33C1619.07,346.85 1629.5,318.55 1641.74,290.52C1645.97,280.82 1652.11,272.41 1660.63,275.93C1675.69,282.15 1663.19,300.9 1657.75,317.86L1672.16,300.75C1686.18,284.1 1714.19,267.88 1732.41,278.62C1737.36,281.54 1739.91,286.5 1739.67,291.87C1739.47,296.39 1736,302.15 1730.96,303.32L1730.96,303.31Z" fill="#B89968" style="fill-rule:nonzero;"/>
        <path fill="#B89968" d="M823.16,257.26C816.72,253.83 815.16,244.34 817.75,238.48C821.53,229.93 830.03,224.6 839.14,226.02C843.18,226.65 846.96,229.66 848.78,232.22C851.52,236.1 850.98,240.62 849.55,245.26C846.32,255.75 834.17,263.11 823.16,257.26Z" fill="#B89968" style="fill-rule:nonzero;"/>
    </g>
</svg>
